<svg width="50" height="50" viewBox="0 0 50 50" fill="none" xmlns="http://www.w3.org/2000/svg">
<g clip-path="url(#clip0_1158_2230)">
<path d="M46.4286 0H3.57143C1.59898 0 0 1.59898 0 3.57143V46.4286C0 48.401 1.59898 50 3.57143 50H46.4286C48.401 50 50 48.401 50 46.4286V3.57143C50 1.59898 48.401 0 46.4286 0Z" fill="white"/>
<path d="M39.0302 45.8474V40.5278L36.5552 32.8296H39.2713L40.5088 36.9439L41.6177 32.8296H44.2213L41.7945 40.5278V45.8474H39.0302Z" fill="black"/>
<path d="M29.0444 45.8474V32.8296H32.3391C33.4748 32.8296 34.3587 32.9742 34.9909 33.2635C35.623 33.5421 36.0676 33.9867 36.3248 34.5974C36.5819 35.1974 36.7105 35.9796 36.7105 36.9439V41.6689C36.7105 42.6439 36.5819 43.4421 36.3248 44.0635C36.0676 44.6742 35.623 45.1242 34.9909 45.4135C34.3694 45.7028 33.4962 45.8474 32.3712 45.8474H29.0444ZM31.9212 43.8546H32.3712C32.8105 43.8546 33.1266 43.7903 33.3194 43.6617C33.5123 43.5331 33.6301 43.3403 33.673 43.0831C33.7266 42.826 33.7534 42.5046 33.7534 42.1189V36.4456C33.7534 36.0599 33.7212 35.7492 33.6569 35.5135C33.6034 35.2778 33.4801 35.1064 33.2873 34.9992C33.0944 34.8921 32.7837 34.8385 32.3551 34.8385H31.9212V43.8546Z" fill="#0E0F0E"/>
<path d="M20.3696 45.8474L22.8285 32.8296H26.1071L28.5339 45.8474H25.8821L25.4481 43.0992H23.5356L23.0856 45.8474H20.3696ZM23.7928 41.3796H25.1749L24.4839 36.301L23.7928 41.3796Z" fill="#0E0F0E"/>
<path d="M14.6118 45.8474V32.8296H20.4618V34.7903H17.4886V38.0206H19.7547V40.0135H17.4886V43.9028H20.494V45.8474H14.6118Z" fill="#0E0F0E"/>
<path d="M5.77881 45.8474V32.8296H9.36273C10.2413 32.8296 11.002 32.926 11.6449 33.1189C12.2878 33.3117 12.786 33.6599 13.1395 34.1635C13.5038 34.6564 13.686 35.3581 13.686 36.2689C13.686 36.8046 13.6431 37.2814 13.5574 37.6992C13.4717 38.1171 13.311 38.4814 13.0753 38.7921C12.8503 39.0921 12.5235 39.3439 12.0949 39.5474L13.8788 45.8474H10.9056L9.47523 40.0135H8.65559V45.8474H5.77881ZM8.65559 38.3581H9.45916C9.86631 38.3581 10.1824 38.2885 10.4074 38.1492C10.6324 37.9992 10.7878 37.7903 10.8735 37.5224C10.9699 37.2439 11.0181 36.9117 11.0181 36.526C11.0181 35.9689 10.9163 35.5349 10.7128 35.2242C10.5092 34.9135 10.1342 34.7581 9.58773 34.7581H8.65559V38.3581Z" fill="#0E0F0E"/>
<path d="M38.1914 31.3474V18.3296H41.0682V29.4028H44.0575V31.3474H38.1914Z" fill="#0E0F0E"/>
<path d="M29.5166 31.3474L31.9755 18.3296H35.2541L37.6808 31.3474H35.0291L34.5951 28.5992H32.6826L32.2326 31.3474H29.5166ZM32.9398 26.8796H34.3219L33.6308 21.801L32.9398 26.8796Z" fill="#0E0F0E"/>
<path d="M23.7583 31.3474V18.3296H29.6083V20.2903H26.6351V23.5206H28.9012V25.5135H26.6351V29.4028H29.6405V31.3474H23.7583Z" fill="#0E0F0E"/>
<path d="M14.9253 31.3474V18.3296H18.5093C19.3878 18.3296 20.1486 18.426 20.7914 18.6189C21.4343 18.8117 21.9325 19.1599 22.2861 19.6635C22.6503 20.1564 22.8325 20.8581 22.8325 21.7689C22.8325 22.3046 22.7896 22.7814 22.7039 23.1992C22.6182 23.6171 22.4575 23.9814 22.2218 24.2921C21.9968 24.5921 21.67 24.8439 21.2414 25.0474L23.0253 31.3474H20.0521L18.6218 25.5135H17.8021V31.3474H14.9253ZM17.8021 23.8581H18.6057C19.0128 23.8581 19.3289 23.7885 19.5539 23.6492C19.7789 23.4992 19.9343 23.2903 20.02 23.0224C20.1164 22.7439 20.1646 22.4117 20.1646 22.026C20.1646 21.4689 20.0628 21.0349 19.8593 20.7242C19.6557 20.4135 19.2807 20.2581 18.7343 20.2581H17.8021V23.8581Z" fill="#0E0F0E"/>
<path d="M39.3333 17.3474V6.46709H37.3726V4.32959H44.1708V6.46709H42.2261V17.3474H39.3333Z" fill="#0E0F0E"/>
<path d="M31.7754 17.3474V4.32959H37.6254V6.2903H34.6522V9.52066H36.9183V11.5135H34.6522V15.4028H37.6576V17.3474H31.7754Z" fill="#0E0F0E"/>
<path d="M26.6162 17.5403C25.7162 17.5403 25.0037 17.3528 24.4787 16.9778C23.9644 16.6028 23.5948 16.0778 23.3698 15.4028C23.1555 14.7171 23.0483 13.9296 23.0483 13.0403V8.6689C23.0483 7.74747 23.1662 6.94926 23.4019 6.27426C23.6376 5.59926 24.0394 5.07962 24.6073 4.71533C25.1858 4.34033 25.968 4.15283 26.9537 4.15283C27.918 4.15283 28.6733 4.31354 29.2198 4.63497C29.7769 4.9564 30.1733 5.40104 30.409 5.9689C30.6448 6.53676 30.7626 7.20104 30.7626 7.96176V8.79747H27.9501V7.73676C27.9501 7.45819 27.9287 7.20104 27.8858 6.96533C27.8537 6.72962 27.768 6.54212 27.6287 6.40283C27.5001 6.25283 27.2858 6.17783 26.9858 6.17783C26.6751 6.17783 26.4501 6.26354 26.3108 6.43497C26.1715 6.59569 26.0805 6.79926 26.0376 7.04569C26.0055 7.29212 25.9894 7.54926 25.9894 7.81712V13.8439C25.9894 14.1332 26.0162 14.4064 26.0698 14.6635C26.134 14.91 26.2412 15.1135 26.3912 15.2742C26.5519 15.4242 26.7769 15.4992 27.0662 15.4992C27.3662 15.4992 27.5965 15.4189 27.7573 15.2582C27.918 15.0975 28.0305 14.8885 28.0948 14.6314C28.159 14.3742 28.1912 14.101 28.1912 13.8117V12.285H27.018V10.5975H30.7787V17.3475H28.8823L28.7215 16.2707C28.5501 16.635 28.2983 16.9403 27.9662 17.1867C27.634 17.4225 27.184 17.5403 26.6162 17.5403Z" fill="#0E0F0E"/>
</g>
<defs>
<clipPath id="clip0_1158_2230">
<rect width="50" height="50" fill="white"/>
</clipPath>
</defs>
</svg>
