<svg width="200" height="200" viewBox="0 0 200 200" fill="none" xmlns="http://www.w3.org/2000/svg">
<mask id="mask0_58_45" style="mask-type:luminance" maskUnits="userSpaceOnUse" x="25" y="84" width="144" height="32">
<path d="M25 84.0901H168.642V115.91H25V84.0901Z" fill="white"/>
</mask>
<g mask="url(#mask0_58_45)">
<path fill-rule="evenodd" clip-rule="evenodd" d="M50.0425 109.902C50.0688 109.898 50.0988 109.892 50.1213 109.887L47.925 115.91H47.8075H39.3288H39.21L41.3325 110.753H41.4063H41.41C41.9988 110.753 45.9775 110.72 50.0488 109.887L50.0425 109.902ZM168.643 95.2836C168.643 102.093 163.333 106.475 154.584 106.475H149.32V115.91H125.548L115.955 103.096V115.91H93.0238L90.5063 108.879C90.3425 108.846 87.785 108.358 84.76 108.358C81.7463 108.358 79.0738 108.836 78.9238 108.864L76.34 115.91H64.6488L62.7425 110.56C65.6063 111.282 67.8025 112.47 68.8963 113.128L69.3813 111.919C67.6163 110.856 62.6825 108.325 55.605 108.325C50.1263 108.325 46.6438 109.679 40.9538 109.679C31.7088 109.679 25.3338 105.119 25 104.893L27.4575 98.8075C28.0938 99.2293 34.24 103.251 41.3188 103.251C42.5213 103.251 43.5525 103.188 44.5113 103.09L52.1875 84.0901H53.2863H59.56H64.9463L72.5425 104.045L80.5838 84.0901H93.36L104.54 113.456V84.0901H119.814C130.2 84.0901 135.288 88.9199 135.288 95.2836C135.288 101.654 130.341 104.111 128.968 104.743L137.915 114.604V84.0901H154.584C163.8 84.0901 168.643 88.8186 168.643 95.2836ZM59.8913 102.556L56.3863 92.7579L52.9513 102.143C53.5338 102.121 54.1538 102.107 54.825 102.107C57.61 102.107 59.6688 102.512 59.8913 102.556ZM88.2575 102.357L84.76 92.8808L81.1988 102.357C81.3625 102.335 83.2788 102.111 84.76 102.111C86.3413 102.111 88.0875 102.329 88.2575 102.357ZM123.554 95.2836C123.554 92.1246 121.984 89.3354 117.633 89.3354H115.955V101.209H117.633C121.549 101.209 123.554 98.957 123.554 95.2836ZM156.906 95.2836C156.906 91.8218 155.094 89.3354 151.636 89.3354H149.32V101.209H151.636C154.884 101.209 156.906 98.9848 156.906 95.2836Z" fill="#666666"/>
</g>
<mask id="mask1_58_45" style="mask-type:luminance" maskUnits="userSpaceOnUse" x="168" y="84" width="7" height="7">
<path d="M168.708 84.0903H175V90.5516H168.708V84.0903Z" fill="white"/>
</mask>
<g mask="url(#mask1_58_45)">
<path fill-rule="evenodd" clip-rule="evenodd" d="M171.876 84.0903C173.614 84.0903 175.001 85.5229 175.001 87.3153C175.001 89.1342 173.614 90.5516 171.859 90.5516C170.122 90.5516 168.708 89.1342 168.708 87.3153C168.708 85.5229 170.122 84.0903 171.859 84.0903H171.876ZM171.859 84.5919C170.461 84.5919 169.314 85.8105 169.314 87.3153C169.314 88.8454 170.461 90.05 171.876 90.05C173.287 90.0652 174.418 88.8454 174.418 87.3292C174.418 85.8105 173.287 84.5919 171.876 84.5919H171.859ZM171.266 89.1899H170.701V85.5939C170.997 85.5521 171.279 85.509 171.706 85.509C172.242 85.509 172.596 85.623 172.809 85.7801C173.018 85.9371 173.132 86.1816 173.132 86.5261C173.132 86.9986 172.821 87.2849 172.441 87.4001V87.4293C172.749 87.4863 172.963 87.7713 173.033 88.302C173.119 88.8619 173.203 89.0759 173.261 89.1899H172.666C172.581 89.0759 172.496 88.7479 172.426 88.2741C172.342 87.8143 172.114 87.6433 171.663 87.6433H171.266V89.1899ZM171.266 87.2H171.677C172.142 87.2 172.538 87.0277 172.538 86.5831C172.538 86.269 172.313 85.9523 171.677 85.9523C171.493 85.9523 171.364 85.9688 171.266 85.9815V87.2Z" fill="#666666"/>
</g>
</svg>
