<svg width="200" height="200" viewBox="0 0 200 200" fill="none" xmlns="http://www.w3.org/2000/svg">
<path d="M58.5513 88.4714V102.397C58.5513 102.622 58.4614 102.839 58.3014 102.998C58.1413 103.158 57.9243 103.248 57.6979 103.248H53.2904C53.0641 103.248 52.8471 103.158 52.6871 102.998C52.5271 102.839 52.4372 102.622 52.4371 102.397V79.7466C52.4371 79.5209 52.527 79.3044 52.687 79.1448C52.8471 78.9852 53.0641 78.8955 53.2904 78.8955H57.3691C57.5954 78.8955 57.8125 78.9852 57.9725 79.1448C58.1326 79.3044 58.2225 79.5209 58.2225 79.7466V82.9363C58.2225 82.9363 59.6805 78.3863 64.0075 78.3863C64.0075 78.3863 68.2874 77.8703 70.0276 82.608C70.0276 82.608 71.4856 78.3863 75.9067 78.3863C75.9067 78.3863 82.4815 77.9964 82.4815 84.7815L82.5315 88.5183V102.443C82.5315 102.669 82.4416 102.886 82.2816 103.045C82.1215 103.205 81.9045 103.295 81.6781 103.295H77.2703C77.044 103.294 76.827 103.205 76.6669 103.045C76.5069 102.886 76.417 102.669 76.4169 102.443L76.3766 87.2518C76.5019 83.8118 73.7116 84.0621 73.7116 84.0621C70.1999 84.1248 70.5378 88.5183 70.5378 88.5183V102.443C70.5378 102.669 70.4479 102.886 70.2879 103.045C70.1279 103.205 69.9108 103.295 69.6845 103.295H65.277C65.0507 103.294 64.8337 103.205 64.6737 103.045C64.5136 102.886 64.4237 102.669 64.4236 102.443V87.5956C64.4236 87.5956 64.6813 84.0306 61.5456 84.0306C61.546 84.0306 58.4418 83.6242 58.5513 88.4714ZM172.165 88.4298V102.355C172.165 102.58 172.075 102.797 171.915 102.956C171.755 103.116 171.538 103.206 171.312 103.206L166.728 103.294C166.501 103.294 166.284 103.204 166.124 103.045C165.964 102.885 165.874 102.669 165.874 102.443V87.5956C165.874 87.5956 166.132 84.0306 162.997 84.0306C162.997 84.0306 160.002 83.8835 160.002 89.473V102.396C160.002 102.622 159.912 102.838 159.752 102.998C159.592 103.157 159.375 103.247 159.149 103.247H154.741C154.514 103.247 154.297 103.157 154.137 102.998C153.977 102.838 153.887 102.622 153.887 102.396V79.7466C153.887 79.5209 153.977 79.3045 154.137 79.1449C154.297 78.9853 154.514 78.8956 154.741 78.8955H158.819C159.046 78.8955 159.263 78.9852 159.423 79.1448C159.583 79.3044 159.673 79.5209 159.673 79.7466V82.9363C159.673 82.9363 161.131 78.3863 165.458 78.3863C165.458 78.3863 170.093 77.6849 171.654 82.5198C171.654 82.5194 172.165 83.5169 172.165 88.4298ZM140.341 78.2925C134.705 78.2925 130.135 83.0301 130.135 91.0044C130.135 98.0251 133.662 103.716 140.341 103.716C146.643 103.716 150.547 98.0251 150.547 91.0044C150.547 83.1709 145.978 78.2925 140.341 78.2925ZM143.898 91.2859C143.898 94.2879 143.522 95.8828 143.522 95.8828C142.987 99.0564 140.677 99.0609 140.336 99.044C139.969 99.0586 137.639 99.0256 137.157 95.8828C137.157 95.8828 136.781 94.2879 136.781 91.2859V90.7856C136.781 87.7836 137.157 86.1887 137.157 86.1887C137.639 83.0459 139.969 83.0129 140.336 83.0271C140.677 83.0103 142.987 83.0144 143.522 86.1887C143.522 86.1887 143.898 87.7836 143.898 90.7856V91.2859ZM127.577 82.9048V79.6551C127.577 79.4294 127.487 79.213 127.327 79.0534C127.167 78.8938 126.95 78.8041 126.723 78.804H112.154C111.928 78.804 111.711 78.8936 111.551 79.0533C111.391 79.2129 111.301 79.4293 111.301 79.6551V82.8797C111.301 83.1054 111.391 83.3218 111.551 83.4814C111.711 83.641 111.928 83.7307 112.154 83.7308H119.754L110.759 96.7448C110.759 96.7448 110.404 97.2724 110.416 97.8552V101.814C110.416 101.814 110.357 103.171 111.901 102.383C111.901 102.383 114.642 100.732 119.239 100.732C119.239 100.732 123.779 100.675 126.805 102.526C126.805 102.526 128.062 103.095 128.062 101.843V98.397C128.062 98.397 128.176 97.4851 126.976 96.9159C126.976 96.9159 123.493 95.0081 118.925 95.321L127.577 82.9048ZM49.0353 99.1971L47.6556 97.1024C47.2165 96.3203 47.2481 95.4445 47.2481 95.4445V85.7819C47.4362 77.4324 38.155 78.1518 38.155 78.1518C29.9044 78.1518 28.6857 84.5556 28.6857 84.5556C28.3418 85.8431 29.3419 85.8742 29.3419 85.8742L33.3735 86.2821C33.3735 86.2821 34.0609 86.439 34.3111 85.6228C34.3111 85.6228 34.842 82.829 37.8111 82.829C41.0417 82.829 41.0082 85.5943 41.0082 85.5943V87.9093C34.5591 88.1243 31.5704 89.9098 31.5704 89.9098C27.5885 92.1613 27.8391 96.6333 27.8391 96.6333C27.8391 103.919 34.7999 103.606 34.7999 103.606C39.2522 103.606 41.886 100.354 41.886 100.354C42.6697 101.731 44.1123 103.043 44.1123 103.043C44.834 103.824 45.5861 103.169 45.5861 103.169L48.8472 100.386C49.5681 99.8538 49.0353 99.1971 49.0353 99.1971ZM36.9728 99.107C34.8785 99.107 34.1 97.0315 34.4477 94.9915C34.7957 92.9516 36.6033 91.3485 41.0086 91.3954V92.6357C41.1647 98.0537 38.716 99.107 36.9728 99.107ZM107.606 99.1971L106.227 97.1024C105.788 96.3203 105.819 95.4445 105.819 95.4445V85.7819C106.007 77.4324 96.7259 78.1518 96.7259 78.1518C88.4753 78.1518 87.2566 84.5556 87.2566 84.5556C86.9127 85.8431 87.9128 85.8742 87.9128 85.8742L91.9444 86.2821C91.9444 86.2821 92.6318 86.439 92.882 85.6228C92.882 85.6228 93.4129 82.829 96.382 82.829C99.6126 82.829 99.5791 85.5943 99.5791 85.5943V87.9093C93.1304 88.1243 90.1414 89.9098 90.1414 89.9098C86.1594 92.1613 86.41 96.6333 86.41 96.6333C86.41 103.919 93.3708 103.606 93.3708 103.606C97.8231 103.606 100.457 100.354 100.457 100.354C101.241 101.731 102.683 103.043 102.683 103.043C103.405 103.824 104.157 103.169 104.157 103.169L107.418 100.386C108.139 99.8538 107.606 99.1971 107.606 99.1971ZM95.5437 99.107C93.4494 99.107 92.671 97.0315 93.0186 94.9915C93.3667 92.9516 95.1742 91.3485 99.5791 91.3954V92.6357C99.7356 98.0537 97.2873 99.107 95.5437 99.107Z" fill="#666666"/>
<path d="M132.258 117.905C132.258 117.905 131.889 118.545 132.342 118.688C132.342 118.688 132.854 118.887 133.492 118.296C133.492 118.296 138.146 114.242 138.258 106.86C138.258 106.86 138.292 105.938 137.921 105.685C137.921 105.685 136.463 104.399 131.22 104.79C131.22 104.79 126.65 105.098 124.155 107.307C124.155 107.307 123.931 107.503 123.931 107.754C123.931 107.754 123.877 108.297 125.249 108.062C125.249 108.062 129.818 107.418 132.538 107.754C132.538 107.754 133.94 107.922 134.333 108.398C134.333 108.398 134.978 108.929 134.641 110.69C134.641 110.691 133.715 115.165 132.258 117.905Z" fill="#666666"/>
<path d="M131.336 110.823C131.336 110.823 132.019 111.705 130.918 112.465C130.918 112.465 119.153 121.85 99.3995 121.85C99.3995 121.85 79.0656 122.851 62.0869 107.465C62.0869 107.465 61.4917 106.944 61.8611 106.46C61.8611 106.46 62.1915 106.014 63.0467 106.499C63.0467 106.499 79.0186 116.425 99.9951 116.425C99.9951 116.425 114.575 116.987 129.532 110.608C129.532 110.608 130.723 109.992 131.336 110.823Z" fill="#666666"/>
</svg>
