<svg width="200" height="200" viewBox="0 0 200 200" fill="none" xmlns="http://www.w3.org/2000/svg">
<path d="M125.138 102.877C125.267 116.799 137.366 121.432 137.5 121.491C137.398 121.818 135.567 128.094 131.126 134.576C127.287 140.181 123.302 145.765 117.026 145.88C110.858 145.994 108.875 142.227 101.824 142.227C94.7746 142.227 92.5712 145.765 86.7329 145.994C80.6743 146.223 76.0606 139.934 72.1898 134.35C64.2799 122.928 58.2351 102.074 66.3517 87.9968C70.3839 81.0062 77.5897 76.5795 85.4109 76.466C91.3603 76.3526 96.9757 80.4638 100.613 80.4638C104.248 80.4638 111.072 75.5198 118.245 76.2459C121.249 76.3707 129.679 77.4575 135.092 85.3717C134.656 85.6417 125.033 91.237 125.138 102.877ZM113.547 68.6892C116.763 64.8003 118.928 59.3866 118.337 54C113.701 54.1861 108.095 57.0859 104.769 60.9727C101.789 64.4146 99.1785 69.9235 99.8827 75.2035C105.051 75.6029 110.33 72.5805 113.547 68.6892Z" fill="#666666"/>
</svg>
