<svg width="200" height="200" viewBox="0 0 200 200" fill="none" xmlns="http://www.w3.org/2000/svg">
<path d="M25.5763 107.126L38.6665 99.1885H45.4599C45.6695 99.1885 45.8611 99.3499 45.8611 99.5797C45.8611 99.7663 45.7738 99.8431 45.6695 99.9024L39.2418 103.659C38.8232 103.905 38.675 104.39 38.675 104.755L38.6665 107.126H46.8381V93.3668C46.8381 93.1034 46.6286 92.874 46.3147 92.874H38.5183L25.4629 100.778V107.126H25.5763Z" fill="#666666"/>
<path d="M54.4457 92.8738L48.8379 107.126H52.6927L53.6692 104.457H59.9312L60.8903 107.126H64.8758L59.1986 92.8738H54.4457ZM54.777 101.424L56.8264 95.84L58.8409 101.424H54.777Z" fill="#666666"/>
<path d="M76.9748 101.5C76.9748 103.353 75.8061 104.101 73.8091 104.101C71.873 104.101 70.6085 103.319 70.6085 101.5V92.6868H66.876V101.916C66.876 106.03 70.6434 107.313 73.8002 107.313C76.9399 107.313 80.6899 106.03 80.6899 101.916V92.6868H76.9573V101.5H76.9748Z" fill="#666666"/>
<path d="M82.6904 95.9591H87.4085V107.126H91.1325V95.9591H95.8331V92.8738H82.6904V95.9591Z" fill="#666666"/>
<path d="M105.908 92.5042C100.589 92.5042 97.833 95.6911 97.833 99.983C97.833 104.292 100.589 107.496 105.908 107.496C111.246 107.496 114.002 104.292 114.002 99.983C114.01 95.6911 111.246 92.5042 105.908 92.5042ZM105.908 104.292C103.152 104.292 101.635 102.651 101.635 99.983C101.635 97.3652 103.152 95.7081 105.908 95.7081C108.69 95.7081 110.182 97.3652 110.182 99.983C110.19 102.66 108.69 104.292 105.908 104.292Z" fill="#666666"/>
<path d="M122.839 92.8738H116.002V107.126H122.839C128.081 107.126 129.528 105.222 129.528 99.8939C129.528 94.8881 128.142 92.8738 122.839 92.8738ZM122.691 104.041H119.726V95.9591H122.691C125.028 95.9591 125.726 96.5792 125.726 99.8939C125.726 102.919 124.941 104.041 122.691 104.041Z" fill="#666666"/>
<path d="M131.528 107.126H143.302V104.041H135.261V101.458H141.732V98.3641H135.261V95.9591H143.302V92.8738H131.528V107.126Z" fill="#666666"/>
<path d="M154.938 98.7552L151.537 98.381C149.549 98.1687 149.052 97.6842 149.052 97.0296C149.052 96.2987 150.072 95.6446 152.069 95.6446C153.988 95.6446 154.991 96.3415 155.174 97.3868H158.828C158.645 94.3695 156.055 92.5 152.27 92.5C147.77 92.5 145.511 94.2422 145.511 97.3275C145.511 99.8345 147.011 101.016 150.116 101.339L153.569 101.696C154.886 101.84 155.488 102.333 155.488 102.979C155.488 103.71 154.607 104.364 152.488 104.364C150.037 104.364 149.052 103.761 148.886 102.545H145.302C145.467 105.826 147.657 107.5 152.357 107.5C156.648 107.5 159.046 105.665 159.046 102.902C159.046 100.497 157.625 99.0526 154.938 98.7552Z" fill="#666666"/>
<path d="M174.536 92.8738H170.097L164.778 98.6615V92.8738H161.045L161.062 107.126H164.778V101.713L169.818 107.126H174.536L167.734 100.089L174.536 92.8738Z" fill="#666666"/>
</svg>
