<svg width="200" height="200" viewBox="0 0 200 200" fill="none" xmlns="http://www.w3.org/2000/svg">
<path d="M41.8189 88.5065L41.8147 106.739H39.8334V88.5044L41.8189 88.5065ZM53.2919 105.666C52.2236 106.363 50.9873 106.757 49.7141 106.807C48.4408 106.856 47.1779 106.559 46.0591 105.947C44.9402 105.335 44.0071 104.431 43.3584 103.331C42.7097 102.23 42.3696 100.974 42.3741 99.6956C42.3786 98.4169 42.7275 97.1633 43.3839 96.0674C44.0403 94.9714 44.9798 94.074 46.1029 93.47C47.226 92.8661 48.491 92.5781 49.7638 92.6366C51.0367 92.695 52.2701 93.0977 53.3336 93.8021C54.4017 93.1061 55.6375 92.7128 56.9101 92.6638C58.1827 92.6148 59.4449 92.912 60.563 93.5238C61.6812 94.1356 62.6137 95.0394 63.262 96.1394C63.9102 97.2395 64.2501 98.4949 64.2456 99.7729C64.2411 101.051 63.8924 102.304 63.2365 103.399C62.5805 104.495 61.6416 105.392 60.5192 105.996C59.3968 106.6 58.1326 106.888 56.8604 106.83C55.5881 106.772 54.3552 106.37 53.2919 105.666ZM54.8836 95.2007C55.8961 96.4279 56.5045 98.0022 56.5045 99.7207C56.5045 101.466 55.8774 103.064 54.8357 104.299C55.6077 104.695 56.4678 104.886 57.3341 104.853C58.2004 104.821 59.044 104.567 59.7845 104.115C60.5251 103.662 61.138 103.028 61.5648 102.27C61.9915 101.513 62.218 100.659 62.2226 99.789C62.2272 98.9191 62.0097 98.0625 61.5909 97.3008C61.1722 96.5392 60.566 95.8978 59.8302 95.4378C59.0945 94.9778 58.2536 94.7145 57.3877 94.673C56.5218 94.6315 55.6597 94.8132 54.8836 95.2007ZM53.3148 103.103C54.1194 102.177 54.562 100.989 54.5607 99.7604C54.562 98.5316 54.1194 97.3439 53.3148 96.4175C52.5099 97.3438 52.0664 98.5313 52.0664 99.7604C52.0664 100.989 52.5099 102.177 53.3148 103.103ZM51.7586 95.2049C50.9838 94.8164 50.1229 94.6333 49.2577 94.6729C48.3925 94.7126 47.5517 94.9737 46.8155 95.4314C46.0792 95.8891 45.4718 96.5282 45.0511 97.2879C44.6305 98.0476 44.4105 98.9027 44.4121 99.7719C44.4137 100.641 44.6368 101.495 45.0602 102.253C45.4837 103.012 46.0934 103.648 46.8313 104.103C47.5693 104.558 48.4109 104.816 49.2763 104.853C50.1416 104.889 51.0019 104.703 51.7752 104.312C50.7036 103.035 50.1168 101.419 50.119 99.7499C50.119 98.021 50.7356 96.4363 51.7586 95.2049ZM148.795 88.5023L148.789 106.731H146.808V88.5023H148.795ZM85.9861 92.6502V88.5002L87.9737 88.5023V92.6502H85.9861ZM87.9737 93.2941L87.9716 106.743L85.9882 106.733V93.2941H87.9737ZM64.7921 98.2405C64.7942 97.4461 64.9213 96.7603 65.1442 96.1666C65.7629 94.5108 67.1046 93.5847 68.4776 93.085C72.3547 91.6717 74.7047 94.9603 74.7256 94.9561C74.7401 94.9519 76.5277 92.1045 80.2131 92.8467C82.4173 93.2899 83.6069 94.6237 84.1382 96.1478C84.3778 96.8335 84.484 97.5569 84.4861 98.2531L84.4819 106.737L82.4528 106.731L82.4465 98.2071C82.4444 97.5088 82.0444 96.3631 81.6632 95.9032C81.3696 95.5344 80.9994 95.2344 80.5784 95.0239C80.1574 94.8134 79.6958 94.6975 79.2256 94.6843C77.8902 94.6488 75.6797 95.508 75.6818 98.2133L75.6839 106.733L73.6422 106.735L73.6443 98.2071C73.6443 96.175 71.8776 94.5861 70.1692 94.7011C69.1755 94.768 68.5192 94.8725 67.7213 95.7464C67.038 96.4948 66.915 97.4105 66.8859 98.2489L66.8775 106.733H64.8025L64.7921 98.2405ZM89.6883 106.737L89.6987 98.2112C89.7133 98.0377 89.6445 97.1722 89.9966 96.1833C90.5529 94.6258 91.9737 92.7589 95.0717 92.7651C98.4051 92.7735 99.778 94.7784 100.311 96.361C100.455 96.7854 100.528 97.9771 100.532 98.2154L100.538 106.739H98.5342L98.5467 98.2447C98.5384 93.5345 91.7466 93.5052 91.7404 98.2154L91.7508 106.739H89.6883V106.737ZM115.726 99.7228C115.726 99.8524 115.703 103.12 115.676 104.186C115.634 105.746 115.316 106.877 114.812 107.803C112.537 111.984 108.305 111.802 106.284 111.133C102.907 110.015 102.22 107.565 101.97 107.019L104.134 107.03C104.559 107.711 105.526 109.703 108.695 109.528C113.507 109.262 113.582 104.809 113.593 104.799C112.425 105.94 110.9 106.642 109.277 106.784C107.653 106.926 106.03 106.5 104.683 105.578C103.337 104.656 102.349 103.295 101.889 101.726C101.428 100.157 101.523 98.4763 102.156 96.9691C102.789 95.4619 103.923 94.221 105.364 93.4569C106.805 92.6927 108.466 92.4524 110.063 92.7766C111.661 93.1008 113.098 93.9696 114.13 95.2356C115.162 96.5017 115.726 98.087 115.726 99.7228ZM108.72 104.818C110.066 104.818 111.358 104.281 112.31 103.325C113.262 102.37 113.797 101.074 113.797 99.7228C113.797 98.3715 113.262 97.0756 112.31 96.1201C111.358 95.1647 110.066 94.6279 108.72 94.6279C107.373 94.6279 106.082 95.1647 105.13 96.1201C104.178 97.0756 103.643 98.3715 103.643 99.7228C103.643 101.074 104.178 102.37 105.13 103.325C106.082 104.281 107.373 104.818 108.72 104.818ZM26.9728 94.7763C27.7864 93.94 28.7934 93.3185 29.9043 92.9673C31.0151 92.6161 32.1953 92.546 33.3397 92.7633C34.4841 92.9805 35.5571 93.4784 36.4633 94.2126C37.3695 94.9468 38.0807 95.8945 38.5336 96.9713C38.9864 98.0481 39.1669 99.2206 39.0589 100.384C38.9508 101.548 38.5577 102.667 37.9144 103.641C37.2712 104.616 36.3978 105.415 35.3721 105.969C34.3463 106.522 33.2001 106.813 32.0354 106.814C28.1332 106.814 25.0186 103.588 25.0186 99.6747L25.002 88.5044H26.9728V94.7763ZM32.0771 104.857C33.4236 104.857 34.715 104.321 35.6671 103.365C36.6193 102.41 37.1542 101.114 37.1542 99.7625C37.1542 98.4112 36.6193 97.1153 35.6671 96.1599C34.715 95.2044 33.4236 94.6676 32.0771 94.6676C30.7305 94.6676 29.4391 95.2044 28.487 96.1599C27.5348 97.1153 26.9999 98.4112 26.9999 99.7625C26.9999 101.114 27.5348 102.41 28.487 103.365C29.4391 104.321 30.7305 104.857 32.0771 104.857ZM128.887 94.7742V88.5023H130.858L130.841 99.6726C130.841 103.588 127.726 106.81 123.824 106.81C122.658 106.811 121.509 106.521 120.481 105.968C119.453 105.415 118.578 104.615 117.933 103.64C117.288 102.665 116.893 101.544 116.785 100.379C116.676 99.2136 116.857 98.0393 117.31 96.9609C117.764 95.8826 118.477 94.9336 119.384 94.1988C120.292 93.464 121.367 92.9661 122.514 92.7495C123.66 92.533 124.842 92.6046 125.954 92.9579C127.066 93.3112 128.073 93.9352 128.887 94.7742ZM123.782 104.855C124.458 104.869 125.129 104.747 125.758 104.497C126.386 104.247 126.958 103.874 127.44 103.399C127.923 102.924 128.306 102.358 128.567 101.733C128.829 101.108 128.964 100.436 128.964 99.7583C128.963 99.0803 128.828 98.4091 128.567 97.784C128.305 97.159 127.921 96.5927 127.439 96.1182C126.956 95.6437 126.384 95.2707 125.756 95.0209C125.127 94.7711 124.456 94.6496 123.78 94.6634C122.451 94.6907 121.186 95.2397 120.256 96.1927C119.326 97.1456 118.805 98.4265 118.805 99.7604C118.805 101.094 119.327 102.375 120.257 103.327C121.188 104.28 122.453 104.829 123.782 104.855ZM145.408 99.681H145.424L145.42 106.743H143.437V104.64C142.301 105.826 140.79 106.579 139.162 106.77C137.534 106.961 135.891 106.579 134.513 105.688C133.135 104.797 132.109 103.453 131.61 101.886C131.111 100.319 131.17 98.6274 131.777 97.0997C132.384 95.572 133.502 94.3035 134.938 93.5115C136.375 92.7195 138.041 92.4532 139.652 92.7583C141.262 93.0633 142.717 93.9206 143.767 95.1835C144.817 96.4463 145.397 98.0362 145.408 99.681ZM138.358 104.862C139.704 104.862 140.996 104.325 141.948 103.369C142.9 102.414 143.435 101.118 143.435 99.7667C143.435 98.4154 142.9 97.1195 141.948 96.1641C140.996 95.2086 139.704 94.6718 138.358 94.6718C137.011 94.6718 135.72 95.2086 134.768 96.1641C133.815 97.1195 133.281 98.4154 133.281 99.7667C133.281 101.118 133.815 102.414 134.768 103.369C135.72 104.325 137.011 104.862 138.358 104.862ZM163.631 99.7541C163.631 100.262 163.548 100.812 163.552 100.812H151.631C151.865 101.963 152.488 102.997 153.394 103.74C154.301 104.483 155.435 104.889 156.606 104.889C158.598 104.889 160.3 103.659 161.181 102.006H163.264C162.7 103.695 161.522 105.109 159.966 105.967C158.41 106.825 156.589 107.063 154.865 106.635C153.142 106.206 151.642 105.143 150.665 103.655C149.687 102.168 149.304 100.366 149.59 98.6075C149.876 96.8491 150.812 95.2633 152.21 94.1655C153.609 93.0678 155.368 92.5386 157.137 92.6831C158.907 92.8276 160.558 93.6353 161.761 94.9455C162.964 96.2557 163.632 97.9724 163.631 99.7541ZM151.608 98.8991H161.608C161.396 97.7233 160.779 96.6597 159.865 95.8937C158.951 95.1278 157.799 94.7082 156.608 94.7082C155.417 94.7082 154.264 95.1278 153.351 95.8937C152.437 96.6597 151.82 97.7233 151.608 98.8991ZM166.273 92.4285L166.235 100.82H164.283V92.4306L166.273 92.4285ZM166.679 102.512L168.754 102.487C168.754 102.487 168.883 103.346 169.087 103.695C169.271 104.009 170.7 105.432 172.227 104.199C173.537 103.141 172.687 101.579 172.625 101.508C172.142 100.899 171.442 100.504 170.673 100.404C169.269 100.168 168.166 99.1708 167.862 98.8886C166.902 97.9959 166.727 95.5436 167.71 94.2808C169.246 92.3094 172.354 91.8034 174.056 94.3248C174.294 94.676 174.635 95.3387 174.667 95.9617L172.785 95.9554C172.785 95.9554 172.512 95.3073 172.264 95.0816C172.264 95.0816 170.96 93.6265 169.462 95.1192C168.902 95.6774 168.837 96.7687 169.133 97.2642C169.133 97.2642 169.512 98.0064 170.644 98.3283C171.708 98.6315 173.754 99.129 174.475 100.523C175.235 101.997 175.192 103.868 174.185 105.037C173.294 106.074 170.431 108.227 167.566 105.035C166.994 104.395 166.821 103.367 166.679 102.512Z" fill="#666666"/>
</svg>
