<svg width="200" height="200" viewBox="0 0 200 200" fill="none" xmlns="http://www.w3.org/2000/svg">
<path fill-rule="evenodd" clip-rule="evenodd" d="M116.558 132.155C116.558 129.572 118.654 127.665 121.128 127.665C123.577 127.665 125.67 129.572 125.67 132.155C125.67 134.763 123.577 136.671 121.128 136.671C118.652 136.67 116.558 134.763 116.558 132.155ZM121.128 135.918C123.159 135.918 124.767 134.322 124.767 132.155C124.767 130.024 123.159 128.417 121.128 128.417C119.068 128.417 117.464 130.024 117.464 132.155C117.462 134.322 119.066 135.918 121.128 135.918ZM120.173 134.763H119.387V129.572H121.363C122.592 129.572 123.196 130.024 123.196 131.049C123.196 131.978 122.615 132.382 121.849 132.476L123.326 134.763H122.453L121.081 132.512H120.175L120.173 134.763ZM121.111 131.846C121.779 131.846 122.376 131.799 122.376 131.002C122.376 130.357 121.789 130.237 121.245 130.237H120.171V131.844L121.111 131.846Z" fill="#666666"/>
<path fill-rule="evenodd" clip-rule="evenodd" d="M99.9992 137.5C114.074 129.71 122.605 117.322 127 103.718C131.564 89.602 130.801 72.903 125.523 62.5C117.484 66.5536 109.398 68.5854 99.9992 68.6138C90.6032 68.6439 82.5175 66.5553 74.4786 62.5C69.1972 72.903 68.4377 89.602 72.998 103.718C77.3964 117.322 85.9277 129.712 99.9958 137.5H99.9992Z" fill="#666666"/>
<path fill-rule="evenodd" clip-rule="evenodd" d="M99.9855 131.194C111.572 124.012 117.741 113.725 121.695 102.102C125.207 91.7875 126.064 79.7203 122.201 70.2964C116.414 72.2848 113.02 72.8996 109.871 73.3942C106.936 73.8521 104.312 74.1278 100.016 74.1879H99.9855C95.6856 74.1294 93.065 73.8537 90.1305 73.3942C86.9774 72.8996 83.5839 72.2848 77.7967 70.2964C73.9375 79.7203 74.7971 91.7858 78.3058 102.102C82.2568 113.725 88.4279 124.012 100.016 131.194H99.9855Z" fill="white"/>
<path fill-rule="evenodd" clip-rule="evenodd" d="M99.9893 128.34C107.823 123.411 116.712 112.212 120.259 97.4869C122.143 89.6704 122.671 80.8915 120.214 73.9238C116.708 74.8595 113.433 75.6365 110.051 76.0927C106.661 76.5471 103.313 76.8797 100.013 76.9014H99.9893C96.6893 76.878 93.3425 76.5471 89.9507 76.0927C86.5672 75.6365 83.2939 74.8595 79.7852 73.9238C77.3264 80.8898 77.8556 89.6687 79.7401 97.4869C83.2905 112.212 92.1741 123.411 100.009 128.34H99.9893Z" fill="#666666"/>
<path fill-rule="evenodd" clip-rule="evenodd" d="M91.9949 82.1349C89.3542 83.5117 88.4311 86.7532 89.6213 89.3665C90.6545 91.6323 92.6893 93.1344 95.0562 93.8395C96.243 94.1921 97.4432 94.284 98.6651 94.3441C100.164 94.416 101.528 94.4628 102.978 94.8287C103.282 94.9072 103.614 95.0877 103.775 95.3868C104.158 96.1119 103.808 96.9073 103.05 97.1245C103.033 98.3894 102.923 100.927 102.923 100.927C102.923 100.927 109.069 100.341 108.029 94.8086C107.782 93.4819 106.739 92.1285 105.549 91.5153C102.468 89.9279 99.084 90.6164 95.9242 89.5938C94.8609 89.2512 93.3854 88.7199 93.0949 87.5252C92.9781 87.0473 93.0816 86.0865 93.574 85.9311C94.3702 85.6788 95.2532 86.3455 96.41 86.6145C97.1377 86.785 97.8639 86.7783 98.4347 86.6079C98.6884 86.5327 99.064 86.4308 99.0991 86.2854C99.064 86.1567 98.7769 86.0414 98.63 85.9662C98.2745 85.7824 97.9123 85.6989 97.5217 85.5485C96.8614 85.2939 96.2209 84.9907 95.6054 84.6412C96.3397 84.516 97.0872 84.4879 97.8288 84.5577C98.3145 84.6128 99.8018 84.5978 100.247 84.4791C100.343 84.4524 100.563 84.3672 100.466 84.2018C100.293 83.911 100 83.8008 99.8068 83.5317C99.3695 82.9402 98.9956 82.3304 98.2912 82.0597C96.2681 81.281 94.013 81.0839 91.9949 82.1349Z" fill="white"/>
<path fill-rule="evenodd" clip-rule="evenodd" d="M102.257 101.878L102.291 95.425C102.291 95.425 101.463 95.2513 100.303 95.1761C98.8005 95.0741 98.1095 95.0975 98.1095 95.0975V95.6406C98.1095 95.6406 97.3784 95.9463 97.2682 96.1452C97.2198 96.2304 97.0262 96.4777 97.1146 96.715C97.7106 98.314 98.5335 99.8629 98.7705 101.566C99.8939 101.723 100.882 101.691 102.257 101.878Z" fill="white"/>
<path fill-rule="evenodd" clip-rule="evenodd" d="M94.5444 100.902C94.2707 103.435 95.9265 104.791 97.7493 105.227C99.1932 105.573 100.595 105.644 102.101 105.825C102.29 105.845 102.694 105.855 102.997 105.987C103.264 106.102 103.395 106.259 103.448 106.425C103.516 106.662 103.49 106.844 103.338 107.035C103.174 107.237 102.742 107.349 102.742 107.349L102.657 110.395C102.657 110.395 103.879 110.348 104.874 109.751C105.81 109.185 106.393 108.465 106.604 107.559C106.847 106.51 106.676 105.481 105.937 104.463C105.448 103.785 104.59 103.3 103.723 102.994C101.931 102.366 99.9844 102.46 98.1232 102.197C97.8428 102.157 97.5824 101.938 97.5557 101.678C97.5073 101.21 97.9496 100.989 97.9496 100.989C97.9496 100.989 97.7243 100.266 97.4873 99.5573C97.2819 99.0226 96.9848 98.2791 96.7662 97.8831C96.1605 98.1422 95.635 98.5588 95.2444 99.0897C94.8537 99.6206 94.612 100.246 94.5444 100.902Z" fill="white"/>
<path fill-rule="evenodd" clip-rule="evenodd" d="M102.1 106.53L102.052 111.995L100.687 111.369L99.3328 110.809L99.3027 106.249C100.516 106.39 101.07 106.405 102.1 106.53Z" fill="white"/>
<path fill-rule="evenodd" clip-rule="evenodd" d="M95.988 109.544C95.2418 111.312 96.1766 113.043 97.6639 113.777C98.4434 114.158 99.4599 114.505 100.301 114.829C101.122 115.145 102.57 116.041 102.681 116.472C102.75 116.743 102.439 116.996 102.439 116.996L102.404 119.135C102.404 119.135 103.291 118.946 103.953 118.403C104.566 117.89 105.02 117.224 105.013 116.163C105.01 114.996 104.466 114.086 102.807 113.113C101.521 112.358 99.9573 111.75 98.7438 111.213C98.5686 111.135 98.4083 110.787 98.4734 110.577C98.5452 110.35 98.6887 110.266 98.6887 110.266L98.6587 107.802C98.6587 107.802 97.7256 107.985 97.2866 108.246C96.8776 108.488 96.2617 108.891 95.988 109.544Z" fill="white"/>
<path fill-rule="evenodd" clip-rule="evenodd" d="M101.88 116.809C101.887 116.634 101.829 116.611 101.75 116.49C101.385 116.108 100.857 115.845 100.73 115.77C100.351 115.546 99.5084 115.235 99.5084 115.235C99.5084 115.235 99.5702 120.825 99.672 123.71C99.6954 124.367 100.059 124.541 100.689 124.574C101.458 124.619 101.683 124.135 101.693 123.854C101.723 122.932 101.837 118.913 101.88 116.809ZM102.466 80.8366C102.743 81.0421 102.743 81.0555 102.828 81.4665C103.014 82.3604 102.822 83.7557 102.999 84.3722C103.094 84.5711 103.293 84.5627 103.443 84.4808C104.675 83.8125 105.519 82.6612 106.768 82.1299C107.359 81.8776 108.985 82.6996 108.607 83.9261C108.434 84.5009 108.17 84.5878 107.814 84.9604C107.087 85.7206 106.057 86.4358 105.154 87.4199C104.541 88.0833 103.803 88.5678 103.338 89.3214C103.213 89.5149 103.082 89.7038 102.944 89.8879C101.206 89.5336 99.4583 89.5954 98.1029 89.3181L98.0996 87.3013C98.0996 87.3013 99.4817 87.0724 99.7354 86.3873C99.7588 86.3305 99.7188 86.1016 99.5201 85.9512C99.2809 85.7882 99.0239 85.653 98.754 85.5485C100.139 85.7691 101.001 85.998 102.339 86.5811C102.425 86.4358 102.374 86.1066 102.278 85.993C102.092 85.7841 101.994 85.7173 101.525 85.6053C100.7 85.3931 98.4802 85.1191 98.4802 85.1191C98.4802 85.1191 99.5068 85.1141 100.368 84.9721C100.789 84.9019 101.131 84.8267 101.226 84.683C101.328 84.4641 101.144 84.145 100.85 83.8308C100.652 83.622 100.433 83.4014 100.27 83.1859C100.068 82.9068 99.7354 82.3989 99.3699 82.0764C99.0544 81.7974 98.2715 81.3947 98.2715 81.3947C98.2715 81.3947 98.138 80.3103 98.3533 79.8758C98.5169 79.5533 98.9376 79.3662 99.1612 79.4781C100.151 80.0346 101.139 80.606 102.466 80.8366Z" fill="white"/>
<path fill-rule="evenodd" clip-rule="evenodd" d="M98.0879 82.9186C97.8275 83.099 97.6506 83.2828 97.3668 83.3313C96.7926 83.4232 96.8777 82.9286 96.4871 82.6529C96.2451 82.4825 96.0181 82.6997 95.8027 82.302C96.6307 82.3254 97.714 82.2502 98.3333 82.8835C98.2581 82.8434 98.1179 82.8935 98.0879 82.9186Z" fill="#666666"/>
<path fill-rule="evenodd" clip-rule="evenodd" d="M98.1595 118.871C97.824 119.222 97.2632 119.937 97.1647 121.077C97.0762 122.096 97.3082 122.385 97.5653 122.935C97.7706 123.386 98.2664 123.357 98.4383 122.938C98.5852 122.596 98.3765 122.28 98.5067 121.529C98.5726 121.192 98.7589 120.89 99.0309 120.681L98.9925 118.196C98.9941 118.198 98.6069 118.403 98.1595 118.871Z" fill="white"/>
</svg>
