<svg width="200" height="200" viewBox="0 0 200 200" fill="none" xmlns="http://www.w3.org/2000/svg">
<path fill-rule="evenodd" clip-rule="evenodd" d="M25.0248 97.7277C24.7209 97.722 24.419 97.7766 24.1367 97.8883C23.8543 98 23.5972 98.1664 23.3803 98.378C23.1634 98.5896 22.9911 98.842 22.8735 99.1205C22.7559 99.399 22.6953 99.698 22.6953 100C22.6953 100.302 22.7559 100.601 22.8735 100.88C22.9911 101.158 23.1634 101.411 23.3803 101.622C23.5972 101.834 23.8543 102 24.1367 102.112C24.419 102.224 24.7209 102.278 25.0248 102.272C25.3251 102.272 25.6224 102.213 25.8996 102.098C26.1769 101.984 26.4286 101.816 26.6404 101.604C26.8522 101.392 27.02 101.141 27.134 100.865C27.2481 100.589 27.3062 100.293 27.305 99.9949C27.3051 99.6972 27.2462 99.4024 27.1317 99.1273C27.0171 98.8523 26.8492 98.6023 26.6374 98.3918C26.4257 98.1813 26.1743 98.0142 25.8976 97.9003C25.6209 97.7863 25.3243 97.7277 25.0248 97.7277ZM25.0248 101.999C24.7602 101.999 24.4981 101.948 24.2536 101.847C24.0091 101.746 23.7871 101.599 23.6002 101.412C23.4133 101.226 23.2654 101.005 23.1647 100.762C23.0641 100.519 23.0129 100.258 23.0139 99.9949C23.014 99.7327 23.0662 99.4731 23.1673 99.231C23.2685 98.9889 23.4167 98.769 23.6035 98.5838C23.7903 98.3987 24.0119 98.252 24.2558 98.1522C24.4997 98.0523 24.761 98.0012 25.0248 98.0018C25.2881 98.0018 25.5488 98.0534 25.792 98.1536C26.0353 98.2537 26.2563 98.4005 26.4424 98.5856C26.6285 98.7707 26.7762 98.9904 26.8769 99.2322C26.9775 99.4741 27.0293 99.7332 27.0292 99.9949C27.0305 100.257 26.9796 100.518 26.8794 100.761C26.7793 101.004 26.6319 101.224 26.4457 101.411C26.2595 101.597 26.0381 101.745 25.7943 101.846C25.5504 101.947 25.2889 101.999 25.0248 101.999Z" fill="#666666"/>
<path fill-rule="evenodd" clip-rule="evenodd" d="M54.4681 92.0899C53.9773 91.6843 53.4046 91.2787 52.8319 91.1161L51.8504 110.184L56.5941 97.0399C57.0849 95.0103 55.9403 93.3066 54.4681 92.0899ZM46.6168 90.9535L49.3974 109.94L52.1781 90.9535C50.542 90.3862 48.4168 90.3049 46.6168 90.9535ZM44.3268 92.0899C42.7726 93.3075 41.71 95.0111 42.1188 96.9586L46.8626 110.103L45.963 91.1161C45.3903 91.2787 44.7357 91.6843 44.3268 92.0899ZM34.6772 93.8748C37.8667 99.3922 41.1382 105.396 44.2458 110.669C43.1823 106.045 42.0378 98.3371 40.4025 96.1458C38.5205 93.5496 34.6772 93.8748 34.6772 93.8748ZM29.0339 96.6335L42.0369 111.644L34.0226 93.9561C31.8965 94.0365 30.0965 95.0924 29.0339 96.6335ZM56.2672 100.69L54.1412 110.993C56.9219 106.208 59.7025 101.501 62.4013 96.6335C59.7836 96.8765 57.1668 97.8502 56.2672 100.69ZM63.137 96.6335L56.2672 111.887L68.3715 98.824C66.9811 97.3634 65.1811 96.7148 63.137 96.6335ZM27.3167 103.449C31.5697 106.694 35.8218 110.021 40.0747 113.266L28.6251 97.2016C27.5616 98.9866 27.2348 101.096 27.3167 103.449ZM69.8429 100.69C69.5915 100.182 69.2602 99.7161 68.8614 99.3109L58.3933 113.428C62.494 110.402 66.5296 107.291 70.4975 104.097C70.5795 102.88 70.4156 101.664 69.8429 100.69ZM27.3978 110.021L38.4386 115.05C34.7583 111.4 31.078 107.91 27.3978 104.341V110.021ZM70.4975 110.346V105.153L60.0294 115.296C63.6278 113.671 66.8992 112.048 70.4975 110.346ZM27.3167 115.05C30.6701 115.781 34.3503 116.674 37.376 117.323L27.3167 110.75V115.05ZM70.4975 115.295V111.319C67.39 113.347 64.1185 115.376 61.2559 117.404L70.4975 115.295ZM27.3167 120H37.1302L27.3167 115.862V120ZM70.4975 120V116.186C67.308 117.566 64.5273 118.702 61.5017 120H70.4975Z" fill="#666666"/>
<path fill-rule="evenodd" clip-rule="evenodd" d="M67.1439 91.6029C67.3069 85.8425 58.6388 85.7612 58.8027 91.6029C58.7207 96.9577 67.3897 97.2015 67.1439 91.6029ZM39.2559 88.6012C39.5017 82.7595 30.4231 83.0034 30.7509 88.6012C30.424 94.4428 39.8286 94.5241 39.2559 88.6012ZM49.3971 89.7367C52.8316 89.8179 54.1409 87.3836 54.2219 85.0305C54.3858 81.4606 52.0959 80 49.3971 80C46.6984 80 44.5723 81.5419 44.6534 85.0305C44.7354 86.9788 45.553 89.6554 49.3971 89.7367ZM98.6301 103.206H100.511V92.4141H98.6301V103.206ZM95.0318 100.122L96.0952 103.206H98.0574L94.2952 92.4141H91.9242L88.7347 101.583L85.6271 97.6875L89.7982 92.4141H87.5893L83.7452 97.525V92.4141H81.8641V103.206H83.7452V97.9314L87.7523 103.206H89.9603L91.0238 100.122H95.0318ZM92.9868 94.1177L94.5402 98.5809H91.5145L92.9868 94.1177ZM112.287 116.998L110.407 109.128H107.052V120H108.934V110.75L111.306 120H113.268L115.64 110.75V120H117.439V109.128H114.25L112.287 116.998ZM122.184 109.128L118.422 120H120.302L121.284 116.837H125.291L126.354 120H128.316L124.554 109.128H122.184ZM121.773 115.376L123.246 110.831L124.799 115.376H121.773ZM136.005 117.484L131.671 109.128H129.135V120H130.933V111.805L135.267 120H137.803V109.128H136.005V117.484ZM171.825 118.378H167.327V115.376H170.598V113.752H167.327V110.75H171.416V109.128H165.445V120H171.825V118.378ZM154.568 109.128H154.241V117.566L149.907 109.128H147.371V118.378H141.647V115.376H145V113.752H141.647V110.75H145.736V109.128H139.765V120H149.17V111.725L153.506 120H156.04V110.75H159.394V120H161.274V110.75H164.546L164.464 109.128H154.568ZM104.354 114.564C104.927 113.997 105.417 113.266 105.417 112.211C105.417 111.237 104.927 110.427 104.354 109.94C103.7 109.371 102.8 109.128 101.165 109.128H98.0574V118.378H92.2511V115.376H95.6045V113.752H92.2511V110.75H96.3402V109.128H90.37V120H99.9385V115.376H100.838C101.739 116.755 103.619 120 103.619 120H105.828L102.882 115.213C103.537 115.131 103.946 114.888 104.354 114.564ZM99.9385 113.835V110.75H101.492C102.966 110.75 103.537 111.319 103.537 112.211C103.537 113.266 102.965 113.835 101.492 113.835H99.9385ZM119.566 98.6613H120.546C121.365 99.9593 123.245 103.206 123.245 103.206H125.454L122.51 98.4987C123.164 98.337 123.655 98.0931 123.982 97.7688C124.554 97.282 125.046 96.4708 125.046 95.497C125.046 94.4428 124.636 93.7121 123.982 93.2252C123.327 92.6571 122.429 92.4141 120.875 92.4141H117.684V101.664H111.878V98.5809H115.232V97.0389H111.878V93.956H116.049V92.4149H110.08V103.207H119.566V98.6613ZM119.566 96.9577V93.956H121.202C122.592 93.956 123.164 94.5241 123.164 95.497C123.164 96.5521 122.592 97.0389 121.202 97.0389H119.566V96.9577ZM88.162 109.94C87.5074 109.371 86.6078 109.128 85.0536 109.128H81.8641V120H83.7452V115.538H85.0536C86.6078 115.538 87.5074 115.295 88.162 114.726C88.7338 114.158 89.2246 113.346 89.2246 112.291C89.2304 111.846 89.1383 111.405 88.9548 110.999C88.7713 110.593 88.5007 110.232 88.162 109.94ZM85.2994 113.916H83.7452V110.751H85.2994C86.7717 110.751 87.3444 111.401 87.3444 112.292C87.3444 113.266 86.6897 113.916 85.2994 113.916ZM108.853 100.122C108.853 98.5809 107.872 97.6071 105.991 96.8764C104.518 96.3895 103.782 95.9839 103.782 95.0914C103.782 94.442 104.437 93.7121 105.827 93.7121C106.726 93.7121 107.707 94.0364 108.116 94.2803V92.7384C107.707 92.4953 106.726 92.2515 105.827 92.2515C103.455 92.2515 101.901 93.5495 101.901 95.2532C101.901 96.8764 103.128 97.768 104.926 98.4174C106.317 98.9043 106.97 99.3912 106.97 100.284C106.97 101.176 106.154 101.826 104.845 101.826C103.864 101.826 102.554 101.5 101.902 101.014V102.717C102.473 103.041 103.619 103.367 104.764 103.367C107.545 103.367 108.853 101.826 108.853 100.122ZM173.133 117.727C173.133 116.674 173.952 115.862 175.014 115.862C176.077 115.862 176.896 116.674 176.896 117.727C176.9 117.974 176.854 118.218 176.761 118.447C176.667 118.675 176.529 118.882 176.353 119.056C176.178 119.231 175.969 119.368 175.739 119.46C175.508 119.553 175.262 119.598 175.014 119.594C173.952 119.595 173.133 118.783 173.133 117.727ZM175.014 120C176.241 120 177.304 119.026 177.304 117.727C177.304 116.428 176.241 115.456 175.014 115.456C173.786 115.456 172.725 116.428 172.725 117.727C172.725 119.026 173.787 120 175.014 120ZM174.524 117.89H175.014L175.669 119.026H176.159L175.34 117.89C175.75 117.809 176.077 117.647 176.077 117.161C176.077 116.675 175.75 116.43 175.096 116.43H174.116V119.026H174.525L174.524 117.89ZM174.524 117.566V116.755H175.096C175.34 116.755 175.669 116.837 175.669 117.161C175.669 117.566 175.34 117.566 175.014 117.566L174.524 117.566Z" fill="#666666"/>
</svg>
