<svg width="200" height="200" viewBox="0 0 200 200" fill="none" xmlns="http://www.w3.org/2000/svg">
<path d="M25 110.089V89.9348H30.55L39.8975 102.316V89.9348H45.4482V110.088H39.8975L30.5508 97.6178V110.088L25 110.089ZM52.0204 110.089V89.9348H65.6033V94.397H57.5704V97.7805H65.3116V102.171H57.5704V105.626H65.604V110.089H52.0204ZM80.5015 110.089H74.8053V94.3978H69.4008V89.9341H85.9053V94.397H80.5008L80.5015 110.089ZM99.4158 98.86H110.37C110.37 106.585 106.249 110.685 99.5553 110.685C93.0766 110.685 88.2133 106.784 88.2133 100.243C88.2133 93.4906 92.6251 89.3152 99.4271 89.3152C107.118 89.3152 109.219 94.9587 109.219 94.9587L103.95 97.0256C103.95 97.0256 102.715 93.8443 99.2447 93.8443C96.7045 93.8443 94.0121 95.7344 94.0121 100.153C94.0121 103.853 96.4196 106.407 99.5183 106.407C102.29 106.407 103.657 104.847 103.871 102.891H99.4158V98.86ZM139.654 89.9363L132.169 110.091H137.902L139.179 106.348H146.592L147.87 110.091H153.639L146.081 89.9363H139.654ZM142.868 95.1549L145.314 102.389H140.476L142.868 95.1549ZM157.035 89.9363V110.091H162.585V102.317H163.023L168.135 110.091H175L168.555 101.804C170.781 101.459 173.22 99.7828 173.22 96.1802C173.22 92.6429 170.958 89.9363 165.451 89.9363H157.035ZM162.585 93.9676H164.045C166.92 93.9676 167.624 95.0003 167.624 96.4863C167.624 98.2753 166.464 99.0064 164.045 99.0064H162.585V93.9676ZM115.263 110.089V89.9348H128.846V94.397H120.813V97.7805H128.554V102.171H120.813V105.626H128.846V110.089H115.263Z" fill="#666666"/>
</svg>
