<svg width="200" height="200" viewBox="0 0 200 200" fill="none" xmlns="http://www.w3.org/2000/svg">
<path d="M175 125.283L165.105 125.301L147.167 85.6676L129.979 125.301H120.019L142.612 74.7581L151.897 74.7522L175 125.283ZM64.9093 89.4774C64.7804 80.6057 57.5113 74.4096 47.2292 74.4096H25V125.218H33.0956V81.8283H46.7661C51.3444 81.8283 56.2686 84.1142 56.3448 89.5837C56.4151 94.4507 52.6165 97.4986 46.1798 97.7584L46.0567 97.7703L41.156 97.8116L57.482 125.301L67.0431 125.283C67.0431 125.283 59.1879 111.987 54.2637 103.647C61.521 101.054 64.9914 95.319 64.9093 89.4774ZM96.8989 95.2718C88.3989 92.9682 85.075 91.0249 85.075 87.097C85.075 81.1431 92.6841 80.5643 95.41 80.5643C99.6952 80.5643 105.147 81.9405 108.371 83.5353L111.789 77.0971C107.433 74.9412 100.762 73.5 95.1813 73.5C83.3105 73.5 75.8774 78.6801 75.8774 87.5341C75.8774 97.6462 86.3588 100.505 94.513 102.708C103.001 105.006 105.962 107.599 105.962 111.533C105.962 118.083 99.0269 119.105 94.73 119.105C88.8327 119.105 83.9671 117.528 79.2129 114.716L75.1563 121.302C81.1591 124.846 87.3789 126.5 94.73 126.5C107.011 126.5 115.165 120.41 115.165 110.977C115.165 100.446 105.241 97.5281 96.8989 95.2718ZM165.392 76.7309C165.392 77.0262 165.339 77.2979 165.234 77.546C165.128 77.7941 164.987 78.0008 164.812 78.1721C164.636 78.3434 164.431 78.4793 164.196 78.5738C163.962 78.6683 163.715 78.7155 163.463 78.7155C163.176 78.7155 162.918 78.6683 162.678 78.562C162.437 78.4556 162.238 78.3198 162.068 78.1426C161.898 77.9654 161.763 77.7528 161.67 77.5106C161.57 77.2684 161.523 77.0026 161.523 76.7191C161.523 76.4238 161.576 76.1521 161.681 75.904C161.787 75.6559 161.927 75.4492 162.103 75.2779C162.279 75.1066 162.49 74.9707 162.725 74.8762C162.959 74.7817 163.211 74.7345 163.469 74.7345C163.727 74.7345 163.973 74.7817 164.202 74.8762C164.436 74.9707 164.642 75.1066 164.817 75.2779C164.993 75.4492 165.134 75.6618 165.24 75.904C165.345 76.1462 165.392 76.4356 165.392 76.7309ZM164.97 76.7309C164.97 76.4887 164.929 76.2702 164.853 76.0635C164.781 75.8704 164.671 75.6937 164.53 75.5437C164.395 75.396 164.231 75.2838 164.05 75.207C163.868 75.1302 163.669 75.0889 163.457 75.0889C163.241 75.0889 163.041 75.1302 162.86 75.207C162.672 75.2838 162.514 75.4019 162.379 75.5437C162.244 75.6914 162.133 75.8626 162.056 76.0635C161.98 76.2643 161.939 76.4887 161.939 76.7309C161.939 76.9554 161.974 77.168 162.045 77.3688C162.115 77.5697 162.215 77.7409 162.35 77.8886C162.478 78.0363 162.643 78.1544 162.824 78.243C163.012 78.3316 163.223 78.373 163.457 78.373C163.669 78.373 163.868 78.3316 164.05 78.2548C164.231 78.178 164.39 78.0599 164.53 77.9181C164.665 77.7705 164.776 77.5992 164.853 77.3984C164.929 77.1975 164.97 76.979 164.97 76.7309ZM163.071 77.8709H162.713V75.6677H163.54C163.803 75.6677 164.003 75.715 164.137 75.8154C164.272 75.9158 164.337 76.0753 164.337 76.2997C164.337 76.5006 164.284 76.6423 164.173 76.7368C164.061 76.8313 163.926 76.8845 163.768 76.9022L164.378 77.8709H163.973L163.411 76.9317H163.071V77.8709ZM163.469 76.6187C163.534 76.6187 163.598 76.6187 163.663 76.6128C163.727 76.6069 163.78 76.5951 163.827 76.5655C163.874 76.5419 163.909 76.5065 163.938 76.4592C163.967 76.412 163.979 76.3529 163.979 76.2702C163.979 76.2052 163.962 76.1521 163.932 76.1107C163.903 76.0694 163.862 76.0398 163.821 76.0221C163.78 76.0044 163.721 75.9867 163.669 75.9808C163.616 75.9749 163.557 75.9749 163.504 75.9749H163.071V76.6187H163.469Z" fill="#666666"/>
</svg>
