<svg width="200" height="200" viewBox="0 0 200 200" fill="none" xmlns="http://www.w3.org/2000/svg">
<path d="M50 75.5V124.5H100.538L150 75.5H50ZM63.6094 84.6223H63.625C67.2219 84.6223 71.6 85.6249 74.7719 87.234L71.3563 93.135C67.8719 91.461 66.1312 91.3155 64.1469 91.201C61.2 91.0401 59.7187 92.0891 59.6844 93.2155C59.6687 94.5894 62.4844 95.8272 65.1375 96.6812C69.1406 97.9407 74.25 99.6302 75.0344 104.516L82.375 85.3062H90.9L99.4969 108.304L99.4625 85.3062H109.341C118.75 85.3062 123.175 88.4625 123.175 95.7003C123.175 102.195 118.637 106.082 110.938 106.082H107.762L107.716 114.719L92.775 114.703L91.7344 110.95C90.1875 111.466 88.4469 111.742 86.6062 111.742C84.7031 111.742 82.9094 111.448 81.3344 110.922L79.85 114.706L71.5156 114.722L71.8906 112.819C71.7625 112.933 71.6438 113.029 71.5156 113.128C69.3031 114.898 66.4875 115.724 63.0375 115.786H62.1406C58.3813 115.836 54.6688 114.87 51.4 113.014L54.4406 107.035C57.7281 108.969 59.8 109.387 62.5813 109.34C64.0281 109.306 65.0687 109.047 65.7531 108.353C66.1625 107.936 66.3906 107.403 66.4062 106.822C66.4344 105.274 64.1906 104.553 61.4719 103.712C59.2594 103.034 56.7344 102.103 54.7812 100.667C52.4562 98.9928 51.3312 96.8638 51.3969 93.8684C51.4125 91.7395 52.2594 89.7095 53.7563 88.1964C55.9219 85.9715 59.4063 84.6316 63.6063 84.6316L63.6094 84.6223ZM107.747 91.5043V99.3734H109.931C112.809 99.3734 115.122 98.4203 115.122 95.3909C115.122 92.4574 112.809 91.5043 109.931 91.5043H107.747ZM86.5531 94.6792L83.4437 104.411C84.3719 104.767 85.4469 104.959 86.5844 104.959C87.7094 104.959 88.7688 104.764 89.675 104.442L86.6156 94.6606L86.5531 94.6792Z" fill="#666666"/>
</svg>
