<svg width="200" height="200" viewBox="0 0 200 200" fill="none" xmlns="http://www.w3.org/2000/svg">
<path fill-rule="evenodd" clip-rule="evenodd" d="M171.748 109.668C171.748 109.454 171.653 109.228 171.462 109.121C171.27 109.007 171.055 108.996 170.839 108.996H169.725V111.536H170.037V110.365H170.612L171.342 111.536H171.713L170.941 110.365C171.396 110.352 171.748 110.168 171.748 109.668ZM170.516 110.12H170.036V109.222H170.766C171.084 109.222 171.432 109.27 171.432 109.663C171.432 110.18 170.874 110.12 170.516 110.12ZM157.174 97.3893L161.848 92.4286C162.119 92.0644 162.254 91.8094 162.254 91.591C162.254 91.2268 161.939 91.081 160.948 91.081H159.768V87.9491H172.534V91.081H170.857C168.92 91.081 168.56 91.3719 165.857 94.7587L158.462 102.696V107.54C158.462 108.779 159.091 109.215 160.894 109.215H163.686V112.237H145.805V109.215H148.597C150.398 109.215 151.029 108.779 151.029 107.54V102.696L142.319 93.1195C140.88 91.4452 141.079 91.081 137.072 91.081V87.9491H153.242V91.081H152.09C150.919 91.081 150.423 91.2993 150.423 91.736C150.423 92.101 150.783 92.3919 151.008 92.6828L155.415 97.4563C155.938 97.9974 156.577 98.0675 157.174 97.3893ZM48.6805 87.9483H52.5811V96.6872H48.9787C48.6596 94.9404 47.5596 94.2607 46.5566 93.3442C44.747 91.6914 40.828 90.3151 37.5319 90.3151C33.2777 90.3151 29.6874 91.6269 29.6874 93.5554C29.6874 98.909 54.0171 94.6487 54.0171 104.771C54.0171 110.051 48.8056 113 39.4465 113C36.2065 113 31.3037 112.001 28.4109 110.474C27.5041 109.953 27.1193 110.966 26.9493 112.236H22.9501V103.205H26.5677C27.3654 105.499 28.4647 105.972 29.4757 106.883C31.23 108.486 35.4056 109.651 39.2348 109.614C45.0084 109.557 46.9936 108.303 46.9936 106.482C46.9936 104.662 45.03 104.224 38.7033 103.242L33.3314 102.368C27.2692 101.457 22.8555 100.11 22.8555 95.3038C22.8555 90.3151 28.439 87.1833 37.2673 87.1833C40.9875 87.1833 44.1 87.6774 47.0874 89.3557C47.9148 89.8904 48.6909 89.9541 48.6805 87.9483ZM124.804 102.58L124.881 92.8669C124.881 91.5926 124.214 91.1559 122.308 91.1559H120.069V88.134H134.316V91.1559H132.459C130.552 91.1559 129.885 91.5934 129.885 92.8669V112.421L124.308 112.377L106.249 95.3795V107.724C106.249 108.962 106.916 109.435 108.822 109.435H111.301V112.421H96.5045V109.435H98.9563C100.862 109.435 101.529 108.961 101.529 107.724V92.8669C101.529 91.5926 100.862 91.1559 98.9563 91.1559H96.5045V88.134H109.298L124.804 102.58ZM77.08 87C65.7253 87 58.6176 91.9895 58.6176 99.9992C58.6176 107.866 65.6267 112.817 76.7336 112.817C88.5309 112.817 95.3932 107.938 95.3932 99.5992C95.394 92.0986 87.9889 87 77.08 87ZM76.8218 109.65C70.5367 109.65 66.924 106.045 66.924 99.8175C66.924 93.7371 70.6939 90.1319 77.1361 90.1319C83.3162 90.1319 86.9289 93.8104 86.9289 100.073C86.9289 106.19 83.2632 109.65 76.8218 109.65Z" fill="#666666"/>
<path fill-rule="evenodd" clip-rule="evenodd" d="M174.864 97.7277C174.56 97.722 174.258 97.7766 173.976 97.8883C173.693 98 173.436 98.1664 173.219 98.378C173.002 98.5896 172.83 98.842 172.712 99.1205C172.595 99.399 172.534 99.698 172.534 100C172.534 100.302 172.595 100.601 172.712 100.88C172.83 101.158 173.002 101.411 173.219 101.622C173.436 101.834 173.693 102 173.976 102.112C174.258 102.224 174.56 102.278 174.864 102.272C175.164 102.272 175.461 102.213 175.738 102.098C176.016 101.984 176.267 101.816 176.479 101.604C176.691 101.392 176.859 101.141 176.973 100.865C177.087 100.589 177.145 100.293 177.144 99.9949C177.144 99.6972 177.085 99.4024 176.971 99.1273C176.856 98.8523 176.688 98.6023 176.476 98.3918C176.265 98.1813 176.013 98.0142 175.736 97.9003C175.46 97.7863 175.163 97.7277 174.864 97.7277ZM174.864 101.999C174.599 101.999 174.337 101.948 174.092 101.847C173.848 101.746 173.626 101.599 173.439 101.412C173.252 101.226 173.104 101.005 173.004 100.762C172.903 100.519 172.852 100.258 172.853 99.9949C172.853 99.7327 172.905 99.4731 173.006 99.231C173.107 98.9889 173.256 98.769 173.442 98.5838C173.629 98.3987 173.851 98.252 174.095 98.1522C174.339 98.0523 174.6 98.0012 174.864 98.0018C175.127 98.0018 175.388 98.0534 175.631 98.1536C175.874 98.2537 176.095 98.4005 176.281 98.5856C176.467 98.7707 176.615 98.9904 176.716 99.2322C176.816 99.4741 176.868 99.7332 176.868 99.9949C176.869 100.257 176.818 100.518 176.718 100.761C176.618 101.004 176.471 101.224 176.285 101.411C176.098 101.597 175.877 101.745 175.633 101.846C175.389 101.947 175.128 101.999 174.864 101.999Z" fill="#666666"/>
</svg>
