<svg width="200" height="200" viewBox="0 0 200 200" fill="none" xmlns="http://www.w3.org/2000/svg">
<path d="M22.4562 84.7818V125.393H16.228V84.7818H0.000976562V78.8205H38.6993V84.7818H22.4562ZM46.1043 125.393V78.8205H52.3326V125.393H46.1043ZM96.2824 112.199C96.2824 120.099 91.0229 125.385 79.0868 125.385H63.292V78.8205H78.6385C89.8301 78.8205 94.8014 83.8807 94.8014 91.1855C94.8014 95.9481 92.0556 99.4638 86.86 101.443C93.0643 102.955 96.2824 106.978 96.2824 112.199ZM79.1588 84.6289H69.5923V99.2305H78.1901C84.8587 99.2305 88.5012 96.2538 88.5012 91.7085C88.5012 87.1631 85.2349 84.6289 79.1588 84.6289ZM78.7105 104.975H69.6403V119.576H79.6792C86.5718 119.576 89.9902 117.114 89.9902 112.271C89.9902 106.913 85.2349 104.975 78.7105 104.975ZM137.366 87.3562C133.66 84.7335 129.233 83.3337 124.694 83.3659C114.607 83.3659 107.802 90.373 107.802 101.926C107.802 113.478 114.607 120.847 124.814 120.847C129.561 120.767 134.156 119.166 137.935 116.286L138.967 122.625C134.637 125.183 129.689 126.519 124.662 126.503C111.052 126.503 101.454 117.042 101.454 102.215C101.454 87.3883 111.197 77.7103 124.686 77.7103C129.833 77.6781 134.893 79.0136 139.36 81.5879L137.366 87.3562ZM177.546 80.9926C176.849 80.5743 176.137 80.1881 175.4 79.8502C169.34 91.5234 158.389 105.401 143.779 113.301C144.587 115.151 145.652 116.873 146.933 118.434C159.453 109.753 171.045 95.3367 177.546 80.9926Z" fill="#666666"/>
<path d="M174.848 79.5849C171.67 78.2253 168.243 77.5334 164.785 77.5656C151.176 77.5656 141.545 88.1286 141.545 102.038C141.537 104.267 141.777 106.487 142.258 108.659C156.187 102.955 168.58 90.3731 174.848 79.5849ZM178.122 81.3145C170.973 98.9812 162.247 111.475 151.136 122.223C155.178 124.958 159.966 126.382 164.833 126.294C178.442 126.294 188.073 115.658 188.073 101.741C188.025 92.5292 184.23 85.3692 178.122 81.3145ZM188.025 79.7779C187.881 76.4554 190.442 73.6477 193.749 73.5029C197.055 73.3581 199.849 75.9325 199.993 79.255C200.001 79.432 200.001 79.6009 199.993 79.7779C200.137 83.1005 197.575 85.9082 194.269 86.053C190.963 86.1978 188.169 83.6234 188.025 80.3009C188.017 80.1239 188.017 79.9469 188.025 79.7779ZM199.312 79.7779C199.312 76.8415 196.943 74.4522 194.021 74.4522C191.099 74.4522 188.721 76.8335 188.721 79.7699V79.7779C188.729 82.7143 191.107 85.0956 194.037 85.0876C196.959 85.0795 199.328 82.6902 199.32 79.7458V79.7779H199.312ZM191.683 76.5921H194.437C195.774 76.5921 196.775 77.2518 196.775 78.531C196.807 79.4079 196.222 80.1963 195.366 80.3974L196.991 82.6741H195.582L194.117 80.51H192.868V82.6741H191.731V76.56L191.683 76.5921ZM194.333 79.6412C194.909 79.7458 195.454 79.3596 195.558 78.7804C195.566 78.7321 195.574 78.6838 195.574 78.6356C195.574 78.0724 195.118 77.6058 194.557 77.6058C194.485 77.6058 194.413 77.6139 194.341 77.6299H192.876V79.6009H194.349L194.333 79.6412Z" fill="#666666"/>
</svg>
