<svg width="200" height="200" viewBox="0 0 200 200" fill="none" xmlns="http://www.w3.org/2000/svg">
<path d="M25 86L32.8 110.045C33.4581 112.06 35.345 113.357 37.39 113.357C38.4077 113.358 39.3994 113.038 40.2221 112.443C41.0448 111.848 41.656 111.008 41.9675 110.045L49.7675 86.0006H45.4344L38.0375 108.771C37.9948 108.908 37.909 109.028 37.7925 109.113C37.6761 109.198 37.5352 109.244 37.3906 109.244C37.0987 109.244 36.84 109.07 36.7319 108.771L29.3338 86.0006L25 86ZM58.2031 86C54.4025 86 51.3306 89.0678 51.3306 92.843V106.515C51.3306 110.29 54.4025 113.357 58.2031 113.357H71.2769V109.245H58.2031C57.8423 109.245 57.4849 109.175 57.1515 109.038C56.818 108.901 56.515 108.7 56.2599 108.446C56.0047 108.192 55.8024 107.891 55.6645 107.56C55.5266 107.229 55.4558 106.873 55.4563 106.515V101.698H68.53V97.6586H55.4563V92.843C55.4563 91.333 56.6837 90.1013 58.2031 90.1013H71.2769V86H58.2031ZM81.7019 86C80.889 85.9996 80.0839 86.1584 79.3328 86.4674C78.5817 86.7764 77.8992 87.2294 77.3244 87.8007C76.7496 88.372 76.2937 89.0502 75.9828 89.7967C75.6719 90.5431 75.5121 91.3432 75.5125 92.1511V113.357H79.6387V92.1511C79.6387 91.0175 80.5606 90.1013 81.7012 90.1013H90.6494C91.3452 90.1018 92.0245 90.3118 92.5977 90.7038C93.1709 91.0958 93.611 91.6513 93.86 92.297C94.0221 92.716 94.0995 93.1626 94.0878 93.6113C94.0762 94.06 93.9756 94.502 93.792 94.9121C93.6083 95.3222 93.3452 95.6923 93.0175 96.0012C92.6899 96.3102 92.3042 96.5519 91.8825 96.7127L84.9487 99.2481C82.4331 100.111 81.105 102.838 81.97 105.338C82.183 105.959 82.5228 106.53 82.9682 107.014C83.4136 107.499 83.9549 107.886 84.5581 108.153L97.5219 114V109.512L86.1819 104.525C86.0788 104.479 85.9866 104.412 85.9109 104.329C85.8353 104.245 85.7779 104.147 85.7425 104.04C85.7074 103.939 85.6928 103.832 85.6997 103.725C85.7065 103.619 85.7345 103.514 85.7822 103.418C85.8299 103.322 85.8962 103.237 85.9773 103.167C86.0585 103.096 86.1529 103.043 86.255 103.009L93.3594 100.546C97.2613 99.0581 99.2131 94.7064 97.7175 90.8287C96.5606 87.8379 93.6912 86.0006 90.6494 86.0006L81.7019 86ZM102.381 86V113.357H106.518V86H102.381ZM109.949 86V90.1007H117.932V113.357H122.058V90.1013H130.041V86H109.949ZM139.367 86C138.35 85.9988 137.358 86.319 136.535 86.9144C135.712 87.5097 135.101 88.3495 134.79 89.3125L126.978 113.357H131.323L138.721 90.574C138.763 90.4367 138.849 90.3165 138.966 90.2313C139.082 90.1461 139.223 90.1003 139.367 90.1007C139.659 90.1007 139.919 90.2765 140.027 90.574L147.412 113.357H151.758L143.946 89.3125C143.633 88.3505 143.021 87.5118 142.198 86.9168C141.376 86.3218 140.385 86.0004 139.367 86ZM160.205 86C155.835 86 152.295 89.5187 152.295 93.8617C152.295 98.2052 155.835 101.723 160.205 101.723L167.09 101.735C169.18 101.735 170.874 103.408 170.874 105.484C170.874 105.978 170.776 106.467 170.586 106.923C170.396 107.379 170.117 107.794 169.766 108.143C169.414 108.492 168.997 108.769 168.538 108.958C168.079 109.147 167.587 109.245 167.09 109.245H153.674V113.357H167.09C171.46 113.357 175 109.827 175 105.484C175 101.141 171.46 97.6226 167.09 97.6226H160.205C159.708 97.6227 159.216 97.5255 158.757 97.3365C158.298 97.1475 157.88 96.8705 157.529 96.5212C157.177 96.172 156.899 95.7574 156.709 95.301C156.518 94.8447 156.421 94.3556 156.421 93.8617C156.421 91.7846 158.114 90.1013 160.205 90.1013H173.621V86H160.205Z" fill="#666666"/>
</svg>
