<svg width="200" height="200" viewBox="0 0 200 200" fill="none" xmlns="http://www.w3.org/2000/svg">
<g clip-path="url(#clip0_61_78)">
<path d="M50 50H150V150H50V50Z" fill="#666666"/>
<path d="M73.1432 109.289C73.1432 108.145 73.0005 107.146 72.5722 106.288C72.0012 105.573 71.0005 105.433 69.4288 105.433H65.8571V109.717H67.0006C68.715 109.717 69.0005 109.289 69.0005 107.147H70.4295V114.291H69.0005C69.0005 111.86 68.715 111.29 67.0006 111.29H65.8571V115.006C65.8571 116.292 65.9999 116.292 67.2861 116.292H68.8578V118.004H60.1427V116.292H60.9992C62.1427 116.292 62.5709 116.147 62.5709 115.006V106.575C62.5709 105.433 62.1413 105.292 60.9992 105.292H60.1427V103.721H74.7149V109.291L73.1432 109.289ZM106.001 114.004H104.716C104.716 115.574 104.716 116.289 103.858 116.289C103.43 116.289 103.003 115.858 103.003 115.003V114.288C102.859 112.289 102.432 111.431 100.002 110.716C102.716 110.432 104.288 109.146 104.288 107.147C104.288 104.718 102.573 103.718 99.0015 103.718H89.1444V105.289H90.2893C91.5755 105.289 91.7182 105.433 91.7182 106.572V115.003C91.7182 116.002 91.1472 116.289 90.2893 116.289H89.2886C88.432 116.289 88.0024 116.002 87.5741 115.003L83.0032 103.718H79.5714L74.7121 115.003C74.2838 116.002 73.9983 116.289 72.8563 116.289H72.2853V118.001H79.7142V116.289H78.1424C77.4287 116.289 76.999 116.289 76.999 115.858C76.999 115.713 77.1417 115.428 77.2845 115.142L77.9983 113.427H83.4272L84.1409 115C84.2837 115.284 84.2837 115.57 84.2837 115.713C84.2837 116.286 83.8554 116.286 83.1403 116.286H81.5685V117.998H97.7111V116.286H96.4249C95.1387 116.286 94.9959 116.286 94.9959 115V111.284H96.4249C98.8531 111.284 99.5683 111.715 99.711 114.141V115.711C99.8538 117.713 101.14 118.284 103.139 118.284C104.853 118.284 105.995 117.284 105.995 114.568C106.001 114.431 106.001 114.144 106.001 114.004ZM78.5721 111.717L80.8576 106.287L83.0003 111.717H78.5721ZM98.0008 109.573L95.0002 109.717V105.289H98.0008C100.001 105.289 101.001 105.86 101.001 107.431V107.577C101 109.002 100.001 109.573 98.0008 109.573ZM118.716 108.287C118.001 106.144 116.572 105.145 114.286 105.145C112.002 105.145 110.142 107 110.142 110.713C110.142 114.429 111.572 116.286 114.286 116.428C116.143 116.428 117.858 115.429 117.858 113.86V113.002C117.858 112.002 117.714 112.002 116.287 112.002H115.572V110.432H122.286V112.002H121.716C120.717 112.002 120.572 112.002 120.572 113.146V117.861H119.285L118.57 116.718C117.284 117.717 115.427 118.288 113.712 118.288C111.712 118.288 110.142 117.573 108.854 116.144C107.427 114.713 106.569 112.858 106.569 110.713C106.569 108.428 107.284 106.713 108.713 105.286C109.999 104 111.856 103.43 113.858 103.43C115.427 103.43 117.287 103.858 118.286 104.999L118.998 103.43H120.145V108.287H118.716ZM131.713 118.144C127.001 118.144 123.285 115.287 123.285 110.715C123.285 106.287 127.001 103.431 131.713 103.431C136.429 103.431 140 106.288 140 110.86C140.002 115.287 136.429 118.144 131.713 118.144ZM136.571 110.859C136.571 105.714 133.142 105.145 131.713 105.145C129 105.145 126.854 107.146 126.854 110.859C126.854 114.572 129 116.573 131.713 116.573C133.144 116.573 136.571 115.86 136.571 110.859ZM109.287 93.8585C108.859 94.715 107.857 94.8592 106.142 94.8592H102.572V85.2876C102.572 84.1456 102.857 84.0014 104.286 84.0014H105.287V82.2869H96.716V84.0014H97.4298C98.716 84.0014 99.4298 84.0014 99.4298 85.2876V93.7171C99.4298 94.8592 98.8588 95.0019 97.5726 95.0019H96.8574V96.5736H111.574V90.8592H109.859C109.858 92.144 109.715 93.002 109.287 93.8585ZM90.5719 94.8592H86.001V90.0013H87.0017C88.7161 90.0013 89.0017 90.2868 89.1444 92.715H90.7161V85.5717H89.1444C89.0017 87.7144 88.7161 88.2854 87.0017 88.2854H86.001V84H89.8582C92.7147 84 93.5726 84.571 93.7154 87.8572H95.2871V82.2869H74.1439V84.0014H75.1446C76.0011 84.0014 76.2881 84.1456 76.2881 84.5724C76.2881 84.8593 76.2881 85.1448 76.1453 85.7158L73.4316 92.8592H73.2888C72.0026 89.2875 70.2881 85.1448 70.2881 85.1448C70.1454 84.8593 70.1454 84.7152 70.1454 84.5724C70.1454 84.1441 70.4309 84.0014 71.1461 84.0014H72.2895V82.2869H64.7179V84.0014H65.7186C66.862 84.0014 67.2903 84.5724 67.4331 85.7158L64.5766 92.8592H64.4338C63.1476 89.002 61.4331 85.0021 61.4331 85.0021C61.2904 84.8593 61.4331 84.7166 61.4331 84.5738C61.2904 84.1456 61.7186 84.0028 62.5766 84.0028H63.1476V82.2869H56V84.0014H56.2855C57.2862 84.0014 58.1413 84.5724 58.571 85.8586L62.8564 96.5722H65.4274L68.5708 88.7151L71.857 96.5722H74.428L78.4279 85.7144C78.999 84.4282 79.2845 84 80.5707 84H80.7134C81.9996 84 82.7134 84 82.7134 85.2862V93.7157C82.7134 94.8578 81.9996 95.0005 80.7134 95.0005H79.8569V96.5722H95.5712V90.8578H93.8567C93.7154 93.7171 93.1429 94.8592 90.5719 94.8592ZM125.144 90.8592C125.144 92.1454 125 93.002 124.573 93.8599C124.143 94.7164 123.144 94.8606 121.429 94.8606H118.001V85.289C118.001 84.147 118.286 84.0028 119.572 84.0028H120.716V82.2869H112.001V84.0014H113.001C114.146 84.0014 114.714 84.0014 114.714 85.2876V93.7171C114.714 94.8592 114.286 95.0019 113.001 95.0019H112.714V96.5736H126.858V90.8592H125.144ZM141.428 92.4295C141.428 95.7157 138.858 96.8577 135.144 96.8577C132.858 96.8577 130.574 95.5715 130.143 95.1433L129.572 96.5722H128.143V90.8578H129.858C130.287 93.5716 132.143 94.715 134.715 94.8578C137.001 95.0005 138.573 94.4295 138.715 92.8578C139.002 91.0006 137.001 91.1433 135.289 90.8578L132.858 90.4296C129.288 89.7144 128 88.7151 128 86.2855C127.856 83.7145 130.286 82 133.428 82C135.001 82 137 82.2855 138.43 83.429L139.144 82.2855H140.428V87.2861H138.858C138.573 84.5724 135.713 83.7145 133.428 83.7145C131.713 83.8586 130.714 84.7152 130.714 85.8586C130.714 87.0006 131.713 87.1448 133 87.4303L136 87.8586C139.144 88.4296 141.428 89.002 141.428 92.4295Z" fill="white"/>
</g>
<defs>
<clipPath id="clip0_61_78">
<rect width="100" height="100" fill="white" transform="translate(50 50)"/>
</clipPath>
</defs>
</svg>
