<svg width="50" height="50" viewBox="0 0 50 50" fill="none" xmlns="http://www.w3.org/2000/svg">
<rect width="50" height="50" rx="3.57143" fill="#4D6CFA"/>
<path d="M39.0303 45.8473V40.5277L36.5553 32.8295H39.2714L40.5089 36.9438L41.6178 32.8295H44.2214L41.7946 40.5277V45.8473H39.0303Z" fill="white"/>
<path d="M29.0446 45.8473V32.8295H32.3392C33.4749 32.8295 34.3588 32.9741 34.991 33.2634C35.6231 33.542 36.0678 33.9866 36.3249 34.5973C36.5821 35.1973 36.7106 35.9795 36.7106 36.9438V41.6688C36.7106 42.6438 36.5821 43.442 36.3249 44.0634C36.0678 44.6741 35.6231 45.1241 34.991 45.4134C34.3696 45.7027 33.4963 45.8473 32.3713 45.8473H29.0446ZM31.9213 43.8545H32.3713C32.8106 43.8545 33.1267 43.7902 33.3196 43.6616C33.5124 43.533 33.6303 43.3402 33.6731 43.083C33.7267 42.8259 33.7535 42.5045 33.7535 42.1188V36.4455C33.7535 36.0598 33.7213 35.7491 33.6571 35.5134C33.6035 35.2777 33.4803 35.1063 33.2874 34.9991C33.0946 34.892 32.7838 34.8384 32.3553 34.8384H31.9213V43.8545Z" fill="white"/>
<path d="M20.3695 45.8473L22.8284 32.8295H26.107L28.5338 45.8473H25.882L25.4481 43.0991H23.5356L23.0856 45.8473H20.3695ZM23.7927 41.3795H25.1749L24.4838 36.3009L23.7927 41.3795Z" fill="white"/>
<path d="M14.6116 45.8473V32.8295H20.4616V34.7902H17.4884V38.0205H19.7545V40.0134H17.4884V43.9027H20.4938V45.8473H14.6116Z" fill="white"/>
<path d="M5.77863 45.8473V32.8295H9.36255C10.2411 32.8295 11.0018 32.9259 11.6447 33.1188C12.2876 33.3116 12.7858 33.6598 13.1393 34.1634C13.5036 34.6563 13.6858 35.358 13.6858 36.2688C13.6858 36.8045 13.6429 37.2813 13.5572 37.6991C13.4715 38.117 13.3108 38.4813 13.0751 38.792C12.8501 39.092 12.5233 39.3438 12.0947 39.5473L13.8786 45.8473H10.9054L9.47505 40.0134H8.65541V45.8473H5.77863ZM8.65541 38.358H9.45898C9.86613 38.358 10.1822 38.2884 10.4072 38.1491C10.6322 37.9991 10.7876 37.7902 10.8733 37.5223C10.9697 37.2438 11.0179 36.9116 11.0179 36.5259C11.0179 35.9688 10.9161 35.5348 10.7126 35.2241C10.509 34.9134 10.134 34.758 9.58755 34.758H8.65541V38.358Z" fill="white"/>
<path d="M38.1914 31.3473V18.3295H41.0682V29.4027H44.0575V31.3473H38.1914Z" fill="white"/>
<path d="M29.5164 31.3473L31.9753 18.3295H35.2539L37.6806 31.3473H35.0289L34.5949 28.5991H32.6824L32.2324 31.3473H29.5164ZM32.9396 26.8795H34.3217L33.6306 21.8009L32.9396 26.8795Z" fill="white"/>
<path d="M23.7585 31.3473V18.3295H29.6085V20.2902H26.6353V23.5205H28.9014V25.5134H26.6353V29.4027H29.6407V31.3473H23.7585Z" fill="white"/>
<path d="M14.9255 31.3473V18.3295H18.5095C19.388 18.3295 20.1488 18.4259 20.7916 18.6188C21.4345 18.8116 21.9327 19.1598 22.2863 19.6634C22.6505 20.1563 22.8327 20.858 22.8327 21.7688C22.8327 22.3045 22.7898 22.7813 22.7041 23.1991C22.6184 23.617 22.4577 23.9813 22.222 24.292C21.997 24.592 21.6702 24.8438 21.2416 25.0473L23.0255 31.3473H20.0523L18.622 25.5134H17.8023V31.3473H14.9255ZM17.8023 23.858H18.6059C19.013 23.858 19.3291 23.7884 19.5541 23.6491C19.7791 23.4991 19.9345 23.2902 20.0202 23.0223C20.1166 22.7438 20.1648 22.4116 20.1648 22.0259C20.1648 21.4688 20.063 21.0348 19.8595 20.7241C19.6559 20.4134 19.2809 20.258 18.7345 20.258H17.8023V23.858Z" fill="white"/>
<path d="M39.3333 17.3473V6.46697H37.3726V4.32947H44.1708V6.46697H42.2261V17.3473H39.3333Z" fill="white"/>
<path d="M31.7754 17.3473V4.32947H37.6254V6.29018H34.6522V9.52054H36.9182V11.5134H34.6522V15.4027H37.6575V17.3473H31.7754Z" fill="white"/>
<path d="M26.616 17.5402C25.716 17.5402 25.0035 17.3527 24.4785 16.9777C23.9642 16.6027 23.5945 16.0777 23.3695 15.4027C23.1552 14.717 23.0481 13.9295 23.0481 13.0402V8.66878C23.0481 7.74735 23.166 6.94914 23.4017 6.27414C23.6374 5.59914 24.0392 5.0795 24.607 4.71521C25.1856 4.34021 25.9677 4.15271 26.9535 4.15271C27.9177 4.15271 28.6731 4.31342 29.2195 4.63485C29.7767 4.95628 30.1731 5.40092 30.4088 5.96878C30.6445 6.53664 30.7624 7.20092 30.7624 7.96164V8.79735H27.9499V7.73664C27.9499 7.45807 27.9285 7.20092 27.8856 6.96521C27.8535 6.7295 27.7677 6.542 27.6285 6.40271C27.4999 6.25271 27.2856 6.17771 26.9856 6.17771C26.6749 6.17771 26.4499 6.26342 26.3106 6.43485C26.1713 6.59557 26.0802 6.79914 26.0374 7.04557C26.0052 7.292 25.9892 7.54914 25.9892 7.817V13.8438C25.9892 14.1331 26.016 14.4063 26.0695 14.6634C26.1338 14.9099 26.241 15.1134 26.391 15.2741C26.5517 15.4241 26.7767 15.4991 27.066 15.4991C27.366 15.4991 27.5963 15.4188 27.757 15.2581C27.9177 15.0974 28.0302 14.8884 28.0945 14.6313C28.1588 14.3741 28.191 14.1009 28.191 13.8116V12.2849H27.0177V10.5974H30.7785V17.3474H28.882L28.7213 16.2706C28.5499 16.6349 28.2981 16.9402 27.966 17.1866C27.6338 17.4224 27.1838 17.5402 26.616 17.5402Z" fill="white"/>
</svg>
