<svg width="100" height="100" viewBox="0 0 100 100" fill="none" xmlns="http://www.w3.org/2000/svg">
<rect width="100" height="100" rx="8" fill="#4D6CFA"/>
<path d="M47.662 77.488C47.406 77.488 46.766 77.04 45.742 76.144C44.782 75.248 44.302 73.904 44.302 72.112C44.366 70.128 44.686 68.048 45.262 65.872C45.902 63.632 46.51 61.648 47.086 59.92C47.47 58.768 47.79 57.808 48.046 57.04C48.366 56.272 48.526 55.792 48.526 55.6C48.462 55.6 48.11 55.664 47.47 55.792C46.894 55.92 46.158 56.08 45.262 56.272C42.126 56.912 39.726 57.232 38.062 57.232C36.462 57.232 35.086 56.272 33.934 54.352C33.55 53.968 33.038 53.264 32.398 52.24C31.758 51.216 31.31 50.096 31.054 48.88C30.862 47.664 31.182 46.64 32.014 45.808C32.654 44.208 33.166 43.056 33.55 42.352C33.934 41.648 34.19 41.136 34.318 40.816C34.51 40.496 34.606 40.176 34.606 39.856C34.67 39.728 34.766 39.536 34.894 39.28C35.022 39.024 35.182 38.768 35.374 38.512C35.95 37.552 36.75 36.304 37.774 34.768C38.862 33.232 39.982 31.696 41.134 30.16C42.35 28.56 43.438 27.152 44.398 25.936C45.358 24.656 46.062 23.824 46.51 23.44C46.894 23.248 47.566 22.96 48.526 22.576C49.55 22.192 50.286 22 50.734 22C51.246 22 51.726 22.352 52.174 23.056C52.686 23.696 53.102 24.368 53.422 25.072C53.742 25.776 53.902 26.256 53.902 26.512C53.902 26.512 53.87 26.576 53.806 26.704C53.742 26.832 53.614 27.056 53.422 27.376C53.166 27.76 52.782 28.272 52.27 28.912C51.822 29.552 51.15 30.384 50.254 31.408C49.486 32.304 48.526 33.616 47.374 35.344C46.222 37.008 45.07 38.8 43.918 40.72C42.83 42.576 41.902 44.24 41.134 45.712C40.366 47.184 39.982 48.176 39.982 48.688C39.982 49.008 40.078 49.264 40.27 49.456C40.526 49.584 40.974 49.648 41.614 49.648C42.446 49.52 43.182 49.392 43.822 49.264C44.526 49.136 45.166 49.008 45.742 48.88C46.446 48.752 47.054 48.624 47.566 48.496C48.078 48.304 48.558 48.144 49.006 48.016C49.518 47.824 49.966 47.664 50.35 47.536C50.798 47.344 51.182 47.12 51.502 46.864C52.27 46.224 52.846 45.36 53.23 44.272C53.614 43.184 54.222 41.712 55.054 39.856C55.566 38.576 56.078 37.424 56.59 36.4C57.166 35.312 57.678 34.32 58.126 33.424C59.726 30.48 61.07 28.336 62.158 26.992C63.246 25.584 63.854 24.88 63.982 24.88C64.174 24.88 64.622 25.136 65.326 25.648C66.03 26.16 66.702 26.704 67.342 27.28C67.854 27.728 68.27 28.144 68.59 28.528C68.91 28.848 69.07 29.072 69.07 29.2C69.07 29.968 68.878 30.768 68.494 31.6C68.174 32.368 67.694 33.264 67.054 34.288C66.414 35.312 65.678 36.624 64.846 38.224C63.886 40.08 62.99 41.936 62.158 43.792C61.326 45.584 60.526 47.376 59.758 49.168C58.99 50.896 58.286 52.592 57.646 54.256C57.006 55.92 56.398 57.488 55.822 58.96C54.414 62.736 53.454 65.52 52.942 67.312C52.43 69.104 52.174 70.352 52.174 71.056C52.238 71.696 52.366 72.24 52.558 72.688C52.558 73.52 52.302 74.32 51.79 75.088C51.278 75.792 50.638 76.368 49.87 76.816C49.102 77.264 48.366 77.488 47.662 77.488Z" fill="white"/>
</svg>
