<svg width="100" height="100" viewBox="0 0 100 100" fill="none" xmlns="http://www.w3.org/2000/svg">
<rect width="100" height="100" rx="8" fill="#4D6CFA"/>
<path d="M50.2513 78.1664C50.0593 78.2944 49.5793 78.3264 48.8113 78.2624C48.1073 78.1984 47.3393 78.0064 46.5073 77.6864C45.7393 77.4304 45.1313 77.1104 44.6833 76.7264C44.4273 76.4704 44.1713 76.1824 43.9153 75.8624C43.6593 75.4784 43.5313 74.8384 43.5313 73.9424C43.5953 73.0464 43.8193 71.6064 44.2033 69.6224C44.4593 68.3424 44.7793 66.9984 45.1633 65.5904C45.5473 64.1824 45.8993 62.9664 46.2193 61.9424C46.5393 60.9184 46.6993 60.4064 46.6993 60.4064C47.0193 60.2784 47.4673 59.3184 48.0433 57.5264C48.6833 55.7344 49.3873 53.5584 50.1553 50.9984C50.4113 50.1024 50.8593 48.5984 51.4993 46.4864C52.1393 44.3744 52.7793 42.3264 53.4193 40.3424C53.9953 38.4864 54.5393 37.0464 55.0513 36.0224C55.5633 34.9984 55.8193 34.4864 55.8193 34.4864C55.8193 34.4864 55.4353 34.7104 54.6673 35.1584C53.8993 35.6064 52.9073 36.2144 51.6913 36.9824C50.4753 37.7504 49.1953 38.6464 47.8513 39.6704C46.7633 40.3104 45.5153 41.2064 44.1073 42.3584C42.7633 43.4464 41.5153 44.3424 40.3633 45.0464C38.6353 46.3904 37.4513 47.2544 36.8113 47.6384C36.2353 48.0224 35.6593 48.0544 35.0833 47.7344C34.2513 47.0304 33.4513 46.0064 32.6833 44.6624C31.9793 43.2544 31.8193 42.2304 32.2033 41.5904C32.3313 41.5264 32.7473 41.2384 33.4513 40.7264C34.2193 40.2144 35.0833 39.6064 36.0433 38.9024C37.0033 38.1984 37.8673 37.5584 38.6353 36.9824C39.4673 36.4064 40.0433 36.0224 40.3633 35.8304C40.5553 35.8304 40.9073 35.6064 41.4193 35.1584C41.9313 34.7104 42.4753 34.2944 43.0513 33.9104C43.3713 33.5264 44.4913 32.6624 46.4113 31.3184C48.3313 29.9744 50.4113 28.4704 52.6513 26.8064C55.0193 25.3344 57.1313 24.1504 58.9873 23.2544C60.8433 22.3584 61.8993 21.9424 62.1553 22.0064C62.3473 22.0064 62.7953 22.2304 63.4993 22.6784C64.2673 23.1264 65.0033 23.6384 65.7073 24.2144C66.4113 24.7904 66.7953 25.2704 66.8593 25.6544C67.2433 26.1024 67.0513 27.1264 66.2833 28.7264C66.0273 29.3024 65.6113 30.3584 65.0353 31.8944C64.4593 33.3664 63.8193 35.0944 63.1153 37.0784C62.4753 38.9984 61.8353 40.9184 61.1953 42.8384C60.6193 44.6944 60.1393 46.2944 59.7553 47.6384C59.2433 49.6224 58.7633 51.1584 58.3153 52.2464C57.9313 53.3344 57.5473 54.3904 57.1633 55.4144C56.8433 56.3744 56.4593 57.7184 56.0113 59.4464C55.5633 60.4704 55.0833 61.7824 54.5713 63.3824C54.1233 64.9184 53.7073 66.4544 53.3233 67.9904C52.9393 69.4624 52.6513 70.6784 52.4593 71.6384C51.9473 73.0464 51.5313 74.4224 51.2113 75.7664C50.8913 77.1104 50.5713 77.9104 50.2513 78.1664Z" fill="white"/>
</svg>
