<svg width="100" height="100" viewBox="0 0 100 100" fill="none" xmlns="http://www.w3.org/2000/svg">
<rect width="100" height="100" rx="8" fill="#4D6CFA"/>
<path d="M41.5104 76.592C39.9104 76.592 38.3424 76.304 36.8064 75.728C35.3344 75.088 34.1504 74.352 33.2544 73.52C32.3584 72.688 31.9424 71.888 32.0064 71.12C32.0704 70.096 32.4224 69.296 33.0624 68.72C33.7024 68.144 34.7264 67.952 36.1344 68.144C38.3104 68.592 40.5184 68.752 42.7584 68.624C44.9984 68.432 47.0784 67.984 48.9984 67.28C50.9824 66.576 52.5824 65.616 53.7984 64.4C55.5264 62.736 56.4224 61.328 56.4864 60.176C56.5504 58.96 55.6544 57.744 53.7984 56.528C52.9664 55.952 51.9424 55.408 50.7264 54.896C49.5104 54.384 48.2944 54 47.0784 53.744C45.9264 53.424 44.9024 53.296 44.0064 53.36C43.4304 53.424 42.7264 53.328 41.8944 53.072C41.0624 52.752 40.2304 52.368 39.3984 51.92C39.0144 51.472 38.6624 50.736 38.3424 49.712C38.0224 48.688 37.7984 48.048 37.6704 47.792C37.6064 47.472 37.8304 47.088 38.3424 46.64C38.8544 46.192 39.8784 45.52 41.4144 44.624C42.9504 43.664 45.1904 42.384 48.1344 40.784C50.8224 39.312 52.8704 38.192 54.2784 37.424C55.7504 36.592 56.8704 35.952 57.6384 35.504C58.4704 34.992 59.1744 34.48 59.7504 33.968C60.5184 33.072 60.8704 32.4 60.8064 31.952C60.7424 31.504 59.8784 31.12 58.2144 30.8C56.6144 30.672 55.3344 30.672 54.3744 30.8C53.4144 30.864 52.9344 31.024 52.9344 31.28C52.9344 31.28 52.9024 31.28 52.8384 31.28C52.8384 31.28 52.7424 31.28 52.5504 31.28C52.2304 31.152 51.5264 31.184 50.4384 31.376C49.3504 31.568 48.2944 31.792 47.2704 32.048C46.3104 32.304 45.7984 32.528 45.7344 32.72C45.6704 32.848 45.2224 33.072 44.3904 33.392C43.6224 33.648 42.8224 33.872 41.9904 34.064C41.2224 34.256 40.7424 34.352 40.5504 34.352C40.2304 34.224 39.8464 33.776 39.3984 33.008C39.0144 32.24 38.6944 31.44 38.4384 30.608C38.1824 29.712 38.1184 29.104 38.2464 28.784C38.3744 28.528 38.8224 28.144 39.5904 27.632C40.4224 27.056 41.3504 26.48 42.3744 25.904C43.3984 25.264 44.2624 24.784 44.9664 24.464C45.8624 24.208 47.1744 23.984 48.9024 23.792C50.6944 23.536 52.4544 23.344 54.1824 23.216C55.9744 23.024 57.2544 22.96 58.0224 23.024C60.9664 23.344 63.3344 24.112 65.1264 25.328C66.9184 26.48 68.0704 28.336 68.5824 30.896C68.7744 31.792 68.7744 32.72 68.5824 33.68C68.3904 34.64 67.9744 35.6 67.3344 36.56C66.6944 37.52 65.7344 38.576 64.4544 39.728C62.8544 40.752 61.6064 41.616 60.7104 42.32C59.8784 42.96 58.7264 43.632 57.2544 44.336C56.8064 44.656 56.1024 45.008 55.1424 45.392C54.1824 45.776 53.2864 46.128 52.4544 46.448C51.6224 46.768 51.2064 46.992 51.2064 47.12C51.2064 47.12 51.4944 47.184 52.0704 47.312C52.7104 47.376 53.3824 47.504 54.0864 47.696C54.8544 47.824 55.3984 48.048 55.7184 48.368C57.5744 49.008 59.2704 50.128 60.8064 51.728C62.4064 53.264 63.5264 54.48 64.1664 55.376C65.0624 57.36 65.1584 59.536 64.4544 61.904C63.8144 64.208 62.6304 66.416 60.9024 68.528C59.2384 70.576 57.2864 72.272 55.0464 73.616C53.2544 74.64 51.0464 75.376 48.4224 75.824C45.8624 76.208 43.5584 76.464 41.5104 76.592Z" fill="white"/>
</svg>
