<svg width="100" height="100" viewBox="0 0 100 100" fill="none" xmlns="http://www.w3.org/2000/svg">
<rect width="100" height="100" rx="8" fill="#4D6CFA"/>
<path d="M35.368 75.0261C35.112 74.8981 34.664 74.5461 34.024 73.9701C33.448 73.3941 32.872 72.7541 32.296 72.0501C31.72 71.2821 31.336 70.7061 31.144 70.3221C30.952 70.0021 30.952 69.4261 31.144 68.5941C31.4 67.7621 31.656 67.3461 31.912 67.3461C32.104 67.4741 32.36 67.2501 32.68 66.6741C33 66.0981 33.32 65.4901 33.64 64.8501C33.96 64.1461 34.12 63.7301 34.12 63.6021C34.184 63.3461 34.344 63.1541 34.6 63.0261C34.92 62.8341 35.208 62.6421 35.464 62.4501C35.784 61.9381 36.2 61.4261 36.712 60.9141C37.288 60.3381 37.736 59.8581 38.056 59.4741C38.568 58.8341 39.496 57.8741 40.84 56.5941C42.184 55.3141 43.496 54.0021 44.776 52.6581C46.12 51.1861 47.304 49.9061 48.328 48.8181C49.352 47.6661 49.896 46.8661 49.96 46.4181C49.96 46.4181 50.056 46.3221 50.248 46.1301C50.504 45.8741 50.792 45.6501 51.112 45.4581C51.432 45.2661 51.848 44.9461 52.36 44.4981C52.936 44.0501 53.416 43.6341 53.8 43.2501C53.928 42.7381 54.216 42.1621 54.664 41.5221C55.176 40.8181 55.752 40.1461 56.392 39.5061C56.904 38.7381 57.384 37.9061 57.832 37.0101C58.28 36.0501 58.568 35.3461 58.696 34.8981C58.888 34.1941 58.824 33.7781 58.504 33.6501C58.184 33.4581 57.32 33.1381 55.912 32.6901C54.376 32.1781 52.936 32.0821 51.592 32.4021C50.248 32.7221 48.456 33.6821 46.216 35.2821C45.32 35.4741 44.488 35.7301 43.72 36.0501C43.016 36.3701 42.408 36.4981 41.896 36.4341C41.64 36.3061 41.352 36.0181 41.032 35.5701C40.712 35.1221 40.36 34.7061 39.976 34.3221L39.016 30.1941L41.992 28.5621C44.616 26.8981 47.112 25.6501 49.48 24.8181C51.912 23.9221 54.024 23.7621 55.816 24.3381C56.52 24.3381 57.16 24.4341 57.736 24.6261C58.312 24.7541 58.6 24.8181 58.6 24.8181C59.112 24.7541 59.848 25.0101 60.808 25.5861C61.832 26.1621 62.824 26.8981 63.784 27.7941C64.808 28.6901 65.512 29.5861 65.896 30.4821C66.92 32.0181 67.304 33.8741 67.048 36.0501C66.792 38.2261 65.864 40.4981 64.264 42.8661C63.944 43.2501 63.24 44.0501 62.152 45.2661C61.064 46.4821 59.816 47.8581 58.408 49.3941C57.064 50.8661 55.816 52.1781 54.664 53.3301C53.576 54.4821 52.872 55.2181 52.552 55.5381C52.104 55.7301 51.336 56.3381 50.248 57.3621C49.224 58.3861 48.104 59.5381 46.888 60.8181C45.736 62.0341 44.744 63.1221 43.912 64.0821C43.144 64.9781 42.824 65.4261 42.952 65.4261C42.888 65.6821 43.208 65.6821 43.912 65.4261C44.68 65.1061 45.352 64.8501 45.928 64.6581C46.888 64.3381 48.008 64.0501 49.288 63.7941C50.632 63.4741 51.976 63.2181 53.32 63.0261C54.664 62.8341 55.816 62.7061 56.776 62.6421C57.8 62.5781 58.408 62.6421 58.6 62.8341C58.728 63.1541 58.824 63.2821 58.888 63.2181C59.016 63.0901 59.08 63.0261 59.08 63.0261C59.208 62.5781 60.008 62.4501 61.48 62.6421C63.016 62.8341 64.392 63.1221 65.608 63.5061C66.312 63.6981 66.856 63.9541 67.24 64.2741C67.688 64.5941 67.912 64.8821 67.912 65.1381C67.912 65.1381 67.976 65.2981 68.104 65.6181C68.296 65.8741 68.584 66.2261 68.968 66.6741C69.992 67.5061 69.992 68.4021 68.968 69.3621C68.008 70.3221 66.248 70.5781 63.688 70.1301C62.024 70.1301 60.648 70.2261 59.56 70.4181C59.304 70.5461 58.76 70.6101 57.928 70.6101C57.096 70.6101 56.296 70.6421 55.528 70.7061C54.376 70.5781 53.224 70.6421 52.072 70.8981C50.92 71.0901 49.544 71.4421 47.944 71.9541C47.368 72.1461 46.472 72.4341 45.256 72.8181C44.04 73.2021 42.728 73.5861 41.32 73.9701C39.912 74.3541 38.632 74.6421 37.48 74.8341C36.392 75.0261 35.688 75.0901 35.368 75.0261Z" fill="white"/>
</svg>
