<svg width="95" height="91" viewBox="0 0 95 91" fill="none" xmlns="http://www.w3.org/2000/svg">
<path opacity="0.4" d="M73.1348 22.2228C43.8805 1.23514 22.8763 0.090471 8.47557 38.1783C-6.50941 88.4588 43.0278 83.9702 85.1962 51.8659C94.3223 39.2406 78.6735 26.1964 73.1348 22.2228Z" fill="#D7D5D6"/>
<rect x="47" width="6" height="84" rx="3" fill="#4D6CFA"/>
<mask id="path-3-inside-1_1369_3652" fill="white">
<rect x="18" y="9" width="64" height="41" rx="4"/>
</mask>
<rect x="18" y="9" width="64" height="41" rx="4" fill="#9E1946" stroke="#4D6CFA" stroke-width="12" stroke-linejoin="round" mask="url(#path-3-inside-1_1369_3652)"/>
<path d="M29.1072 39V19.56H34.4592C35.7712 19.56 36.9072 19.704 37.8672 19.992C38.8272 20.28 39.5712 20.8 40.0992 21.552C40.6432 22.288 40.9152 23.336 40.9152 24.696C40.9152 25.496 40.8512 26.208 40.7232 26.832C40.5952 27.456 40.3552 28 40.0032 28.464C39.6672 28.912 39.1792 29.288 38.5392 29.592L41.2032 39H36.7632L34.6272 30.288H33.4032V39H29.1072ZM33.4032 27.816H34.6032C35.2112 27.816 35.6832 27.712 36.0192 27.504C36.3552 27.28 36.5872 26.968 36.7152 26.568C36.8592 26.152 36.9312 25.656 36.9312 25.08C36.9312 24.248 36.7792 23.6 36.4752 23.136C36.1712 22.672 35.6112 22.44 34.7952 22.44H33.4032V27.816ZM42.2978 39V19.56H51.0338V22.488H46.5938V27.312H49.9778V30.288H46.5938V36.096H51.0818V39H42.2978ZM51.8322 39V19.56H54.8562L58.8402 28.92V19.56H62.3922V39H59.4882L55.5042 28.92V39H51.8322ZM65.8373 39V22.752H62.9093V19.56H73.0613V22.752H70.1573V39H65.8373Z" fill="white"/>
</svg>
