<svg width="95" height="91" viewBox="0 0 95 91" fill="none" xmlns="http://www.w3.org/2000/svg">
<path opacity="0.4" d="M73.1348 22.2228C43.8805 1.23514 22.8763 0.090471 8.47557 38.1783C-6.50941 88.4588 43.0278 83.9702 85.1962 51.8659C94.3223 39.2406 78.6735 26.1964 73.1348 22.2228Z" fill="#D7D5D6"/>
<rect x="47" width="6" height="84" rx="3" fill="#4D6CFA"/>
<mask id="path-3-inside-1_1369_3644" fill="white">
<rect x="18" y="9" width="64" height="41" rx="4"/>
</mask>
<rect x="18" y="9" width="64" height="41" rx="4" fill="#595457" stroke="#4D6CFA" stroke-width="12" stroke-linejoin="round" mask="url(#path-3-inside-1_1369_3644)"/>
<path d="M35.5328 39.288C34.3168 39.288 33.3008 39.072 32.4848 38.64C31.6688 38.208 31.0528 37.544 30.6368 36.648C30.2208 35.736 29.9888 34.56 29.9408 33.12L33.6128 32.568C33.6288 33.4 33.7008 34.072 33.8288 34.584C33.9728 35.096 34.1648 35.464 34.4048 35.688C34.6608 35.912 34.9648 36.024 35.3168 36.024C35.7648 36.024 36.0528 35.872 36.1808 35.568C36.3248 35.264 36.3968 34.944 36.3968 34.608C36.3968 33.808 36.2048 33.136 35.8208 32.592C35.4368 32.032 34.9168 31.472 34.2608 30.912L32.5808 29.448C31.8448 28.824 31.2208 28.12 30.7088 27.336C30.2128 26.536 29.9648 25.552 29.9648 24.384C29.9648 22.736 30.4528 21.48 31.4288 20.616C32.4048 19.736 33.7328 19.296 35.4128 19.296C36.4528 19.296 37.2848 19.472 37.9088 19.824C38.5488 20.176 39.0288 20.64 39.3488 21.216C39.6848 21.776 39.9088 22.376 40.0208 23.016C40.1488 23.64 40.2208 24.24 40.2368 24.816L36.5408 25.272C36.5248 24.696 36.4848 24.2 36.4208 23.784C36.3728 23.352 36.2608 23.024 36.0848 22.8C35.9088 22.56 35.6368 22.44 35.2688 22.44C34.8688 22.44 34.5728 22.608 34.3808 22.944C34.2048 23.28 34.1168 23.616 34.1168 23.952C34.1168 24.672 34.2848 25.264 34.6208 25.728C34.9728 26.176 35.4288 26.648 35.9888 27.144L37.5968 28.56C38.4448 29.28 39.1568 30.096 39.7328 31.008C40.3248 31.92 40.6208 33.048 40.6208 34.392C40.6208 35.304 40.4128 36.136 39.9968 36.888C39.5808 37.624 38.9888 38.208 38.2208 38.64C37.4688 39.072 36.5728 39.288 35.5328 39.288ZM40.3774 39L44.0494 19.56H48.9454L52.5694 39H48.6094L47.9614 34.896H45.1054L44.4334 39H40.3774ZM45.4894 32.328H47.5534L46.5214 24.744L45.4894 32.328ZM53.3322 39V19.56H57.6282V36.096H62.0922V39H53.3322ZM62.7728 39V19.56H71.5088V22.488H67.0688V27.312H70.4528V30.288H67.0688V36.096H71.5568V39H62.7728Z" fill="white"/>
</svg>
