<svg width="297" height="211" viewBox="0 0 297 211" fill="none" xmlns="http://www.w3.org/2000/svg">
<rect x="0.25" y="0.25" width="296.5" height="210.5" stroke="black" stroke-width="0.5"/>
<path d="M153.907 110.769L148.083 104.944L182.529 70.4986C182.917 69.6666 183.627 67.2657 183.86 65.1737C184.026 63.676 182.917 61.901 182.196 61.8456H178.868L174.541 57.5191L180.199 51.8613L184.526 56.1878C184.137 57.4636 184.625 59.0833 185.69 59.3495C186.755 59.6158 189.24 60.1261 190.849 59.8487C192.18 60.8472 196.578 64.4835 199.336 69.9993C201.998 75.3243 200.278 81.1485 198.337 84.3102C198.67 78.9853 196.507 75.158 194.343 72.3291L187.531 76.146L153.907 110.769Z" fill="white" stroke="black" stroke-width="0.5"/>
<path d="M182.03 70.3323L188.187 76.4892" stroke="black" stroke-width="0.5"/>
<path d="M150.119 150.159C151.95 146.109 156.842 136.913 161.768 132.52C167.925 127.028 176.245 123.368 179.74 122.536C181.293 120.539 184.898 116.312 186.895 115.38C189.391 114.215 195.548 113.051 196.546 113.383L187.727 122.203C186.249 121.168 182.981 119.387 181.736 120.539C180.492 121.69 179.887 122.35 179.74 122.536L181.57 128.36C179.462 129.136 175.047 130.889 174.248 131.688C173.25 132.686 167.758 135.848 164.763 139.509C161.768 143.17 158.498 148.469 157.774 150.159C157.275 151.324 156.72 152.877 156.276 153.32C155.555 153.598 153.614 153.653 152.283 152.655C151.078 151.751 150.619 150.658 150.119 150.159Z" fill="white"/>
<path d="M179.74 122.536C176.245 123.368 167.925 127.028 161.768 132.52C156.842 136.913 151.95 146.109 150.119 150.159C150.619 150.658 151.078 151.751 152.283 152.655C153.614 153.653 155.555 153.598 156.276 153.32C156.72 152.877 157.275 151.324 157.774 150.159C158.498 148.469 161.768 143.17 164.763 139.509C167.758 135.848 173.25 132.686 174.248 131.688C175.047 130.889 179.462 129.136 181.57 128.36L179.74 122.536ZM179.74 122.536C181.293 120.539 184.898 116.312 186.895 115.38C189.391 114.215 195.548 113.051 196.546 113.383L187.727 122.203C186.249 121.168 182.981 119.387 181.736 120.539C180.492 121.69 179.887 122.35 179.74 122.536Z" stroke="black" stroke-width="0.5"/>
<path d="M159.938 159.977C163.987 158.146 173.183 153.254 177.576 148.328C183.068 142.171 186.729 133.851 187.561 130.356C189.557 128.803 193.784 125.198 194.716 123.201C195.881 120.705 197.046 114.548 196.713 113.55L187.893 122.369C188.928 123.847 190.709 127.115 189.557 128.36C188.406 129.604 187.746 130.209 187.561 130.356L181.736 128.526C180.96 130.634 179.207 135.049 178.408 135.848C177.41 136.846 174.248 142.338 170.587 145.333C166.926 148.328 161.627 151.598 159.937 152.322C158.773 152.821 157.22 153.376 156.776 153.819C156.498 154.541 156.443 156.482 157.441 157.813C158.345 159.018 159.438 159.477 159.938 159.977Z" fill="white"/>
<path d="M187.561 130.356C186.729 133.851 183.068 142.171 177.576 148.328C173.183 153.254 163.987 158.146 159.938 159.977C159.438 159.477 158.345 159.018 157.441 157.813C156.443 156.482 156.498 154.541 156.776 153.819C157.22 153.376 158.773 152.821 159.937 152.322C161.627 151.598 166.926 148.328 170.587 145.333C174.248 142.338 177.41 136.846 178.408 135.848C179.207 135.049 180.96 130.634 181.736 128.526L187.561 130.356ZM187.561 130.356C189.557 128.803 193.784 125.198 194.716 123.201C195.881 120.705 197.046 114.548 196.713 113.55L187.893 122.369C188.928 123.847 190.709 127.115 189.557 128.36C188.406 129.604 187.746 130.209 187.561 130.356Z" stroke="black" stroke-width="0.5"/>
<circle cx="185.065" cy="125.198" r="1.63265" transform="rotate(45 185.065 125.198)" fill="white" stroke="black" stroke-width="0.5"/>
<rect x="121.765" y="51.1824" width="39.9771" height="14.0906" rx="1.63265" transform="rotate(45 121.765 51.1824)" fill="white" stroke="black" stroke-width="0.5"/>
<path d="M114.61 82.9449L115.941 84.2761L117.106 85.4409C113.611 89.3792 99.8331 104.045 98.635 105.243C97.803 106.075 96.8046 105.742 95.6397 104.577C94.6984 103.636 93.8093 102.414 94.6413 101.582L114.61 82.9449Z" fill="white"/>
<path d="M116.94 56.3201L115.275 54.6561C114.776 54.1569 113.478 53.458 112.28 54.6561C111.082 55.8542 108.675 58.2615 107.621 59.3154C107.399 59.7592 107.122 60.9462 107.787 62.1443C108.453 63.3424 114.499 75.734 117.439 81.78C117.328 82.2238 116.873 83.3443 115.941 84.2761M115.941 84.2761L114.61 82.9449L94.6413 101.582C93.8093 102.414 94.6984 103.636 95.6397 104.577C96.8046 105.742 97.803 106.075 98.635 105.243C99.8331 104.045 113.611 89.3792 117.106 85.4409L115.941 84.2761Z" stroke="black" stroke-width="0.5"/>
<path d="M147.667 121.997L130.694 105.024C123.871 109.517 119.045 119.335 118.546 120.167C118.047 120.999 115.884 127.156 115.717 129.319C115.584 131.05 114.996 132.703 114.719 133.313C113.554 134.145 105.733 140.302 104.735 140.967C103.736 141.633 98.5777 146.792 96.7472 148.955C94.9168 151.118 95.0832 154.28 95.2496 155.112C95.3827 155.778 96.1925 156.277 96.5808 156.443C96.7472 156.61 97.3463 157.075 98.4113 157.608C99.4763 158.14 102.294 157.053 103.57 156.443C106.066 155.611 111.058 149.288 112.223 147.79C113.155 146.592 117.492 140.635 119.545 137.806C122.207 137.251 128.664 135.609 133.19 133.479C137.716 131.349 143.008 127.323 147.667 121.997Z" fill="white" stroke="black" stroke-width="0.5"/>
<path d="M114.719 133.313L119.711 138.305" stroke="black" stroke-width="0.5"/>
<circle cx="101.407" cy="151.618" r="2.10332" transform="rotate(45 101.407 151.618)" fill="white" stroke="black" stroke-width="0.5"/>
</svg>
